%TF.GenerationSoftware,KiCad,Pcbnew,(5.1.7)-1*%
%TF.CreationDate,2020-11-26T14:29:50-06:00*%
%TF.ProjectId,025mag-PROBE-BOARD_REV2,3032356d-6167-42d5-9052-4f42452d424f,rev?*%
%TF.SameCoordinates,Original*%
%TF.FileFunction,Other,Fab,Bot*%
%FSLAX46Y46*%
G04 Gerber Fmt 4.6, Leading zero omitted, Abs format (unit mm)*
G04 Created by KiCad (PCBNEW (5.1.7)-1) date 2020-11-26 14:29:50*
%MOMM*%
%LPD*%
G01*
G04 APERTURE LIST*
%ADD10C,0.100000*%
%ADD11C,0.150000*%
%ADD12C,0.080000*%
%ADD13C,0.060000*%
G04 APERTURE END LIST*
D10*
%TO.C,D1*%
X-6634000Y-2874000D02*
X-6634000Y-74000D01*
X-6634000Y-74000D02*
X-6234000Y326000D01*
X-6234000Y326000D02*
X-5034000Y326000D01*
X-5034000Y326000D02*
X-5034000Y-2874000D01*
X-5034000Y-2874000D02*
X-6634000Y-2874000D01*
%TO.C,R2*%
X6634000Y550000D02*
X5034000Y550000D01*
X5034000Y550000D02*
X5034000Y-2650000D01*
X5034000Y-2650000D02*
X6634000Y-2650000D01*
X6634000Y-2650000D02*
X6634000Y550000D01*
%TD*%
%TO.C,D1*%
D11*
X-3731619Y1868857D02*
X-3731619Y2345047D01*
X-4731619Y2345047D01*
X-4255428Y1535523D02*
X-4255428Y1202190D01*
X-3731619Y1059333D02*
X-3731619Y1535523D01*
X-4731619Y1535523D01*
X-4731619Y1059333D01*
X-3731619Y630761D02*
X-4731619Y630761D01*
X-4731619Y392666D01*
X-4684000Y249809D01*
X-4588761Y154571D01*
X-4493523Y106952D01*
X-4303047Y59333D01*
X-4160190Y59333D01*
X-3969714Y106952D01*
X-3874476Y154571D01*
X-3779238Y249809D01*
X-3731619Y392666D01*
X-3731619Y630761D01*
X-3636380Y-131142D02*
X-3636380Y-893047D01*
X-3779238Y-1083523D02*
X-3731619Y-1226380D01*
X-3731619Y-1464476D01*
X-3779238Y-1559714D01*
X-3826857Y-1607333D01*
X-3922095Y-1654952D01*
X-4017333Y-1654952D01*
X-4112571Y-1607333D01*
X-4160190Y-1559714D01*
X-4207809Y-1464476D01*
X-4255428Y-1274000D01*
X-4303047Y-1178761D01*
X-4350666Y-1131142D01*
X-4445904Y-1083523D01*
X-4541142Y-1083523D01*
X-4636380Y-1131142D01*
X-4684000Y-1178761D01*
X-4731619Y-1274000D01*
X-4731619Y-1512095D01*
X-4684000Y-1654952D01*
X-3731619Y-2083523D02*
X-4398285Y-2083523D01*
X-4303047Y-2083523D02*
X-4350666Y-2131142D01*
X-4398285Y-2226380D01*
X-4398285Y-2369238D01*
X-4350666Y-2464476D01*
X-4255428Y-2512095D01*
X-3731619Y-2512095D01*
X-4255428Y-2512095D02*
X-4350666Y-2559714D01*
X-4398285Y-2654952D01*
X-4398285Y-2797809D01*
X-4350666Y-2893047D01*
X-4255428Y-2940666D01*
X-3731619Y-2940666D01*
X-3731619Y-3845428D02*
X-4255428Y-3845428D01*
X-4350666Y-3797809D01*
X-4398285Y-3702571D01*
X-4398285Y-3512095D01*
X-4350666Y-3416857D01*
X-3779238Y-3845428D02*
X-3731619Y-3750190D01*
X-3731619Y-3512095D01*
X-3779238Y-3416857D01*
X-3874476Y-3369238D01*
X-3969714Y-3369238D01*
X-4064952Y-3416857D01*
X-4112571Y-3512095D01*
X-4112571Y-3750190D01*
X-4160190Y-3845428D01*
X-3731619Y-4464476D02*
X-3779238Y-4369238D01*
X-3874476Y-4321619D01*
X-4731619Y-4321619D01*
X-3731619Y-4988285D02*
X-3779238Y-4893047D01*
X-3874476Y-4845428D01*
X-4731619Y-4845428D01*
D12*
X-5607809Y-904952D02*
X-6107809Y-904952D01*
X-6107809Y-1024000D01*
X-6084000Y-1095428D01*
X-6036380Y-1143047D01*
X-5988761Y-1166857D01*
X-5893523Y-1190666D01*
X-5822095Y-1190666D01*
X-5726857Y-1166857D01*
X-5679238Y-1143047D01*
X-5631619Y-1095428D01*
X-5607809Y-1024000D01*
X-5607809Y-904952D01*
X-5607809Y-1666857D02*
X-5607809Y-1381142D01*
X-5607809Y-1524000D02*
X-6107809Y-1524000D01*
X-6036380Y-1476380D01*
X-5988761Y-1428761D01*
X-5964952Y-1381142D01*
%TO.C,R2*%
D11*
X7716380Y-930952D02*
X7716380Y-359523D01*
X7716380Y-645238D02*
X6716380Y-645238D01*
X6859238Y-550000D01*
X6954476Y-454761D01*
X7002095Y-359523D01*
X7716380Y-1359523D02*
X6716380Y-1359523D01*
X7335428Y-1454761D02*
X7716380Y-1740476D01*
X7049714Y-1740476D02*
X7430666Y-1359523D01*
D13*
X6014952Y-983333D02*
X5824476Y-850000D01*
X6014952Y-754761D02*
X5614952Y-754761D01*
X5614952Y-907142D01*
X5634000Y-945238D01*
X5653047Y-964285D01*
X5691142Y-983333D01*
X5748285Y-983333D01*
X5786380Y-964285D01*
X5805428Y-945238D01*
X5824476Y-907142D01*
X5824476Y-754761D01*
X5653047Y-1135714D02*
X5634000Y-1154761D01*
X5614952Y-1192857D01*
X5614952Y-1288095D01*
X5634000Y-1326190D01*
X5653047Y-1345238D01*
X5691142Y-1364285D01*
X5729238Y-1364285D01*
X5786380Y-1345238D01*
X6014952Y-1116666D01*
X6014952Y-1364285D01*
%TD*%
M02*
