%TF.GenerationSoftware,KiCad,Pcbnew,(5.1.7)-1*%
%TF.CreationDate,2020-12-02T23:42:10-06:00*%
%TF.ProjectId,025mag-PROBE-BOARD_REV2,3032356d-6167-42d5-9052-4f42452d424f,rev?*%
%TF.SameCoordinates,Original*%
%TF.FileFunction,Soldermask,Bot*%
%TF.FilePolarity,Negative*%
%FSLAX46Y46*%
G04 Gerber Fmt 4.6, Leading zero omitted, Abs format (unit mm)*
G04 Created by KiCad (PCBNEW (5.1.7)-1) date 2020-12-02 23:42:10*
%MOMM*%
%LPD*%
G01*
G04 APERTURE LIST*
%ADD10C,5.000000*%
%ADD11C,1.800000*%
%ADD12C,2.250000*%
%ADD13O,1.950000X1.700000*%
%ADD14C,6.400000*%
G04 APERTURE END LIST*
D10*
%TO.C,M31*%
X-5080000Y6330000D03*
%TD*%
D11*
%TO.C,SW1*%
X0Y-2540000D03*
D12*
X0Y0D03*
X0Y5080000D03*
X0Y-5080000D03*
%TD*%
D13*
%TO.C,REF\u002A\u002A*%
X0Y-5000000D03*
G36*
G01*
X-725000Y850000D02*
X725000Y850000D01*
G75*
G02*
X975000Y600000I0J-250000D01*
G01*
X975000Y-600000D01*
G75*
G02*
X725000Y-850000I-250000J0D01*
G01*
X-725000Y-850000D01*
G75*
G02*
X-975000Y-600000I0J250000D01*
G01*
X-975000Y600000D01*
G75*
G02*
X-725000Y850000I250000J0D01*
G01*
G37*
X0Y-2500000D03*
%TD*%
%TO.C,D2*%
G36*
G01*
X-5090000Y775000D02*
X-6340000Y775000D01*
G75*
G02*
X-6590000Y1025000I0J250000D01*
G01*
X-6590000Y1950000D01*
G75*
G02*
X-6340000Y2200000I250000J0D01*
G01*
X-5090000Y2200000D01*
G75*
G02*
X-4840000Y1950000I0J-250000D01*
G01*
X-4840000Y1025000D01*
G75*
G02*
X-5090000Y775000I-250000J0D01*
G01*
G37*
G36*
G01*
X-5090000Y-2200000D02*
X-6340000Y-2200000D01*
G75*
G02*
X-6590000Y-1950000I0J250000D01*
G01*
X-6590000Y-1025000D01*
G75*
G02*
X-6340000Y-775000I250000J0D01*
G01*
X-5090000Y-775000D01*
G75*
G02*
X-4840000Y-1025000I0J-250000D01*
G01*
X-4840000Y-1950000D01*
G75*
G02*
X-5090000Y-2200000I-250000J0D01*
G01*
G37*
%TD*%
%TO.C,R2*%
G36*
G01*
X5705001Y900000D02*
X4454999Y900000D01*
G75*
G02*
X4205000Y1149999I0J249999D01*
G01*
X4205000Y1950001D01*
G75*
G02*
X4454999Y2200000I249999J0D01*
G01*
X5705001Y2200000D01*
G75*
G02*
X5955000Y1950001I0J-249999D01*
G01*
X5955000Y1149999D01*
G75*
G02*
X5705001Y900000I-249999J0D01*
G01*
G37*
G36*
G01*
X5705001Y-2200000D02*
X4454999Y-2200000D01*
G75*
G02*
X4205000Y-1950001I0J249999D01*
G01*
X4205000Y-1149999D01*
G75*
G02*
X4454999Y-900000I249999J0D01*
G01*
X5705001Y-900000D01*
G75*
G02*
X5955000Y-1149999I0J-249999D01*
G01*
X5955000Y-1950001D01*
G75*
G02*
X5705001Y-2200000I-249999J0D01*
G01*
G37*
%TD*%
D10*
%TO.C,REF\u002A\u002A*%
X5120000Y6330000D03*
%TD*%
D14*
%TO.C,MAG2*%
X0Y-10160000D03*
%TD*%
%TO.C,MAG1*%
X0Y10160000D03*
%TD*%
M02*
