%TF.GenerationSoftware,KiCad,Pcbnew,(5.1.7)-1*%
%TF.CreationDate,2020-11-26T14:29:50-06:00*%
%TF.ProjectId,025mag-PROBE-BOARD_REV2,3032356d-6167-42d5-9052-4f42452d424f,rev?*%
%TF.SameCoordinates,Original*%
%TF.FileFunction,Soldermask,Bot*%
%TF.FilePolarity,Negative*%
%FSLAX46Y46*%
G04 Gerber Fmt 4.6, Leading zero omitted, Abs format (unit mm)*
G04 Created by KiCad (PCBNEW (5.1.7)-1) date 2020-11-26 14:29:50*
%MOMM*%
%LPD*%
G01*
G04 APERTURE LIST*
%ADD10C,3.200000*%
%ADD11C,1.800000*%
%ADD12C,2.250000*%
%ADD13O,1.950000X1.700000*%
%ADD14C,6.400000*%
G04 APERTURE END LIST*
D10*
%TO.C,M31*%
X-5080000Y6330000D03*
%TD*%
D11*
%TO.C,SW1*%
X0Y-2540000D03*
D12*
X0Y0D03*
X0Y5080000D03*
X0Y-5080000D03*
%TD*%
D13*
%TO.C,REF\u002A\u002A*%
X0Y-5000000D03*
G36*
G01*
X-725000Y850000D02*
X725000Y850000D01*
G75*
G02*
X975000Y600000I0J-250000D01*
G01*
X975000Y-600000D01*
G75*
G02*
X725000Y-850000I-250000J0D01*
G01*
X-725000Y-850000D01*
G75*
G02*
X-975000Y-600000I0J250000D01*
G01*
X-975000Y600000D01*
G75*
G02*
X-725000Y850000I250000J0D01*
G01*
G37*
X0Y-2500000D03*
%TD*%
%TO.C,D1*%
G36*
G01*
X-6459000Y-2049000D02*
X-5209000Y-2049000D01*
G75*
G02*
X-4959000Y-2299000I0J-250000D01*
G01*
X-4959000Y-3224000D01*
G75*
G02*
X-5209000Y-3474000I-250000J0D01*
G01*
X-6459000Y-3474000D01*
G75*
G02*
X-6709000Y-3224000I0J250000D01*
G01*
X-6709000Y-2299000D01*
G75*
G02*
X-6459000Y-2049000I250000J0D01*
G01*
G37*
G36*
G01*
X-6459000Y926000D02*
X-5209000Y926000D01*
G75*
G02*
X-4959000Y676000I0J-250000D01*
G01*
X-4959000Y-249000D01*
G75*
G02*
X-5209000Y-499000I-250000J0D01*
G01*
X-6459000Y-499000D01*
G75*
G02*
X-6709000Y-249000I0J250000D01*
G01*
X-6709000Y676000D01*
G75*
G02*
X-6459000Y926000I250000J0D01*
G01*
G37*
%TD*%
%TO.C,R2*%
G36*
G01*
X5208999Y-1950000D02*
X6459001Y-1950000D01*
G75*
G02*
X6709000Y-2199999I0J-249999D01*
G01*
X6709000Y-3000001D01*
G75*
G02*
X6459001Y-3250000I-249999J0D01*
G01*
X5208999Y-3250000D01*
G75*
G02*
X4959000Y-3000001I0J249999D01*
G01*
X4959000Y-2199999D01*
G75*
G02*
X5208999Y-1950000I249999J0D01*
G01*
G37*
G36*
G01*
X5208999Y1150000D02*
X6459001Y1150000D01*
G75*
G02*
X6709000Y900001I0J-249999D01*
G01*
X6709000Y99999D01*
G75*
G02*
X6459001Y-150000I-249999J0D01*
G01*
X5208999Y-150000D01*
G75*
G02*
X4959000Y99999I0J249999D01*
G01*
X4959000Y900001D01*
G75*
G02*
X5208999Y1150000I249999J0D01*
G01*
G37*
%TD*%
D10*
%TO.C,REF\u002A\u002A*%
X5120000Y6330000D03*
%TD*%
D14*
%TO.C,MAG2*%
X0Y-10160000D03*
%TD*%
%TO.C,MAG1*%
X0Y10160000D03*
%TD*%
M02*
