M48
; DRILL file {KiCad (5.1.7)-1} date 11/26/20 14:29:53
; FORMAT={-:-/ absolute / inch / decimal}
; #@! TF.CreationDate,2020-11-26T14:29:53-06:00
; #@! TF.GenerationSoftware,Kicad,Pcbnew,(5.1.7)-1
; #@! TF.FileFunction,Plated,1,2,PTH
FMAT,2
INCH
T1C0.0157
T2C0.0374
T3C0.0394
T4C0.0472
T5C0.0630
%
G90
G05
T1
X-0.2297Y-0.1802
X-0.1Y0.4
X-0.1Y-0.4
X-0.0707Y0.4707
X-0.0707Y0.3293
X-0.0707Y-0.3293
X-0.0707Y-0.4707
X0.0Y0.5
X0.0Y0.3
X0.0Y-0.3
X0.0Y-0.5
X0.07Y0.3293
X0.07Y-0.4707
X0.0707Y0.4707
X0.0707Y-0.3293
X0.1Y0.4
X0.1Y-0.4
X0.2297Y-0.1703
T2
X0.0Y0.0
X0.0Y-0.0984
X0.0Y-0.1969
T3
X0.0Y-0.1
T4
X0.0Y0.2
X0.0Y0.0
X0.0Y-0.2
T5
X0.0Y-0.4
X0.0Y0.4
T0
M30
