%TF.GenerationSoftware,KiCad,Pcbnew,(5.1.7)-1*%
%TF.CreationDate,2020-11-26T14:29:50-06:00*%
%TF.ProjectId,025mag-PROBE-BOARD_REV2,3032356d-6167-42d5-9052-4f42452d424f,rev?*%
%TF.SameCoordinates,Original*%
%TF.FileFunction,Soldermask,Top*%
%TF.FilePolarity,Negative*%
%FSLAX46Y46*%
G04 Gerber Fmt 4.6, Leading zero omitted, Abs format (unit mm)*
G04 Created by KiCad (PCBNEW (5.1.7)-1) date 2020-11-26 14:29:50*
%MOMM*%
%LPD*%
G01*
G04 APERTURE LIST*
%ADD10C,3.200000*%
%ADD11C,1.800000*%
%ADD12C,2.250000*%
%ADD13O,1.950000X1.700000*%
%ADD14C,6.400000*%
G04 APERTURE END LIST*
D10*
%TO.C,M31*%
X-5080000Y6330000D03*
%TD*%
D11*
%TO.C,SW1*%
X0Y-2540000D03*
D12*
X0Y0D03*
X0Y5080000D03*
X0Y-5080000D03*
%TD*%
D13*
%TO.C,REF\u002A\u002A*%
X0Y-5000000D03*
G36*
G01*
X-725000Y850000D02*
X725000Y850000D01*
G75*
G02*
X975000Y600000I0J-250000D01*
G01*
X975000Y-600000D01*
G75*
G02*
X725000Y-850000I-250000J0D01*
G01*
X-725000Y-850000D01*
G75*
G02*
X-975000Y-600000I0J250000D01*
G01*
X-975000Y600000D01*
G75*
G02*
X-725000Y850000I250000J0D01*
G01*
G37*
X0Y-2500000D03*
%TD*%
%TO.C,D2*%
G36*
G01*
X5209000Y-1962500D02*
X6459000Y-1962500D01*
G75*
G02*
X6709000Y-2212500I0J-250000D01*
G01*
X6709000Y-3137500D01*
G75*
G02*
X6459000Y-3387500I-250000J0D01*
G01*
X5209000Y-3387500D01*
G75*
G02*
X4959000Y-3137500I0J250000D01*
G01*
X4959000Y-2212500D01*
G75*
G02*
X5209000Y-1962500I250000J0D01*
G01*
G37*
G36*
G01*
X5209000Y1012500D02*
X6459000Y1012500D01*
G75*
G02*
X6709000Y762500I0J-250000D01*
G01*
X6709000Y-162500D01*
G75*
G02*
X6459000Y-412500I-250000J0D01*
G01*
X5209000Y-412500D01*
G75*
G02*
X4959000Y-162500I0J250000D01*
G01*
X4959000Y762500D01*
G75*
G02*
X5209000Y1012500I250000J0D01*
G01*
G37*
%TD*%
%TO.C,R1*%
G36*
G01*
X-6459001Y-2200000D02*
X-5208999Y-2200000D01*
G75*
G02*
X-4959000Y-2449999I0J-249999D01*
G01*
X-4959000Y-3250001D01*
G75*
G02*
X-5208999Y-3500000I-249999J0D01*
G01*
X-6459001Y-3500000D01*
G75*
G02*
X-6709000Y-3250001I0J249999D01*
G01*
X-6709000Y-2449999D01*
G75*
G02*
X-6459001Y-2200000I249999J0D01*
G01*
G37*
G36*
G01*
X-6459001Y900000D02*
X-5208999Y900000D01*
G75*
G02*
X-4959000Y650001I0J-249999D01*
G01*
X-4959000Y-150001D01*
G75*
G02*
X-5208999Y-400000I-249999J0D01*
G01*
X-6459001Y-400000D01*
G75*
G02*
X-6709000Y-150001I0J249999D01*
G01*
X-6709000Y650001D01*
G75*
G02*
X-6459001Y900000I249999J0D01*
G01*
G37*
%TD*%
D10*
%TO.C,REF\u002A\u002A*%
X5120000Y6330000D03*
%TD*%
D14*
%TO.C,MAG2*%
X0Y-10160000D03*
%TD*%
%TO.C,MAG1*%
X0Y10160000D03*
%TD*%
M02*
