%TF.GenerationSoftware,KiCad,Pcbnew,(5.1.7)-1*%
%TF.CreationDate,2020-11-24T20:57:24-06:00*%
%TF.ProjectId,025mag-PROBE-BOARD_REV2,3032356d-6167-42d5-9052-4f42452d424f,rev?*%
%TF.SameCoordinates,Original*%
%TF.FileFunction,Legend,Top*%
%TF.FilePolarity,Positive*%
%FSLAX46Y46*%
G04 Gerber Fmt 4.6, Leading zero omitted, Abs format (unit mm)*
G04 Created by KiCad (PCBNEW (5.1.7)-1) date 2020-11-24 20:57:24*
%MOMM*%
%LPD*%
G01*
G04 APERTURE LIST*
%ADD10C,0.120000*%
%ADD11C,0.100000*%
%ADD12C,0.150000*%
G04 APERTURE END LIST*
D10*
X-5125000Y-1750000D02*
X-5125000Y-1850000D01*
X-6550000Y-1750000D02*
X-5125000Y-1750000D01*
D11*
G36*
X-5850000Y-1800000D02*
G01*
X-6500000Y-700000D01*
X-5150000Y-700000D01*
X-5850000Y-1800000D01*
G37*
X-5850000Y-1800000D02*
X-6500000Y-700000D01*
X-5150000Y-700000D01*
X-5850000Y-1800000D01*
D10*
X-5125000Y-1850000D02*
X-6550000Y-1850000D01*
X-6550000Y-1850000D02*
X-6550000Y-1750000D01*
D12*
X2579761Y3926190D02*
X2627380Y4069047D01*
X2627380Y4307142D01*
X2579761Y4402380D01*
X2532142Y4450000D01*
X2436904Y4497619D01*
X2341666Y4497619D01*
X2246428Y4450000D01*
X2198809Y4402380D01*
X2151190Y4307142D01*
X2103571Y4116666D01*
X2055952Y4021428D01*
X2008333Y3973809D01*
X1913095Y3926190D01*
X1817857Y3926190D01*
X1722619Y3973809D01*
X1675000Y4021428D01*
X1627380Y4116666D01*
X1627380Y4354761D01*
X1675000Y4497619D01*
X2627380Y4926190D02*
X1627380Y4926190D01*
X1675000Y5926190D02*
X1627380Y5830952D01*
X1627380Y5688095D01*
X1675000Y5545238D01*
X1770238Y5450000D01*
X1865476Y5402380D01*
X2055952Y5354761D01*
X2198809Y5354761D01*
X2389285Y5402380D01*
X2484523Y5450000D01*
X2579761Y5545238D01*
X2627380Y5688095D01*
X2627380Y5783333D01*
X2579761Y5926190D01*
X2532142Y5973809D01*
X2198809Y5973809D01*
X2198809Y5783333D01*
X3300000Y-6616666D02*
X3252380Y-6711904D01*
X3252380Y-6854761D01*
X3299999Y-6997619D01*
X3395238Y-7092857D01*
X3490476Y-7140476D01*
X3680952Y-7188095D01*
X3823809Y-7188095D01*
X4014285Y-7140476D01*
X4109523Y-7092857D01*
X4204761Y-6997619D01*
X4252380Y-6854761D01*
X4252380Y-6759523D01*
X4204761Y-6616666D01*
X4157142Y-6569047D01*
X3823809Y-6569047D01*
X3823809Y-6759523D01*
X4252380Y-6140476D02*
X3252380Y-6140476D01*
X4252380Y-5569047D01*
X3252380Y-5569047D01*
X4252380Y-5092857D02*
X3252380Y-5092857D01*
X3252380Y-4854761D01*
X3300000Y-4711904D01*
X3395238Y-4616666D01*
X3490476Y-4569047D01*
X3680952Y-4521428D01*
X3823809Y-4521428D01*
X4014285Y-4569047D01*
X4109523Y-4616666D01*
X4204761Y-4711904D01*
X4252380Y-4854761D01*
X4252380Y-5092857D01*
X4204761Y-3378571D02*
X4252380Y-3235714D01*
X4252380Y-2997619D01*
X4204761Y-2902380D01*
X4157142Y-2854761D01*
X4061904Y-2807142D01*
X3966666Y-2807142D01*
X3871428Y-2854761D01*
X3823809Y-2902380D01*
X3776190Y-2997619D01*
X3728571Y-3188095D01*
X3680952Y-3283333D01*
X3633333Y-3330952D01*
X3538095Y-3378571D01*
X3442857Y-3378571D01*
X3347619Y-3330952D01*
X3300000Y-3283333D01*
X3252380Y-3188095D01*
X3252380Y-2950000D01*
X3300000Y-2807142D01*
X4252380Y-2378571D02*
X3252380Y-2378571D01*
X3300000Y-1378571D02*
X3252380Y-1473809D01*
X3252380Y-1616666D01*
X3300000Y-1759523D01*
X3395238Y-1854761D01*
X3490476Y-1902380D01*
X3680952Y-1950000D01*
X3823809Y-1950000D01*
X4014285Y-1902380D01*
X4109523Y-1854761D01*
X4204761Y-1759523D01*
X4252380Y-1616666D01*
X4252380Y-1521428D01*
X4204761Y-1378571D01*
X4157142Y-1330952D01*
X3823809Y-1330952D01*
X3823809Y-1521428D01*
X3252380Y-283333D02*
X4252380Y49999D01*
X3252380Y383333D01*
X4157142Y1288095D02*
X4204761Y1240476D01*
X4252380Y1097619D01*
X4252380Y1002380D01*
X4204761Y859523D01*
X4109523Y764285D01*
X4014285Y716666D01*
X3823809Y669047D01*
X3680952Y669047D01*
X3490476Y716666D01*
X3395238Y764285D01*
X3300000Y859523D01*
X3252380Y1002380D01*
X3252380Y1097619D01*
X3300000Y1240476D01*
X3347619Y1288095D01*
X4157142Y2288095D02*
X4204761Y2240476D01*
X4252380Y2097619D01*
X4252380Y2002380D01*
X4204761Y1859523D01*
X4109523Y1764285D01*
X4014285Y1716666D01*
X3823809Y1669047D01*
X3680952Y1669047D01*
X3490476Y1716666D01*
X3395238Y1764285D01*
X3300000Y1859523D01*
X3252380Y2002380D01*
X3252380Y2097619D01*
X3300000Y2240476D01*
X3347619Y2288095D01*
D10*
%TO.C,SW1*%
X2940000Y-6350000D02*
X2940000Y6350000D01*
X-2940000Y-6350000D02*
X2940000Y-6350000D01*
X-2940000Y6350000D02*
X-2940000Y-6350000D01*
X2940000Y6350000D02*
X-2940000Y6350000D01*
%TO.C,REF\u002A\u002A*%
X200000Y-7550000D02*
X200000Y-6800000D01*
X1700000Y-7550000D02*
X2450000Y-7550000D01*
X1700000Y-5750000D02*
X1700000Y-7550000D01*
X2450000Y-5750000D02*
X1700000Y-5750000D01*
X1700000Y-4250000D02*
X2450000Y-4250000D01*
X1700000Y750000D02*
X2450000Y750000D01*
X1700000Y-750000D02*
X1700000Y-4250000D01*
X2750000Y2850000D02*
X1500000Y2850000D01*
X2750000Y1600000D02*
X2750000Y2850000D01*
X-2750000Y-6800000D02*
X-2750000Y-2500000D01*
X200000Y-6800000D02*
X-2750000Y-6800000D01*
X-2750000Y-2500000D02*
X-2750000Y1725000D01*
X200000Y1800000D02*
X-2750000Y1800000D01*
X200000Y2550000D02*
X200000Y1800000D01*
X2450000Y-7550000D02*
X2450000Y-5750000D01*
X2450000Y750000D02*
X2450000Y2550000D01*
X1700000Y2550000D02*
X1700000Y750000D01*
X2450000Y2550000D02*
X1700000Y2550000D01*
X2450000Y-4250000D02*
X2450000Y-750000D01*
X2460000Y-7560000D02*
X2460000Y2560000D01*
X2460000Y2560000D02*
X-3510000Y2560000D01*
X-3510000Y-7560000D02*
X2460000Y-7560000D01*
X-3510000Y2560000D02*
X-3510000Y-7560000D01*
X2450000Y-750000D02*
X1700000Y-750000D01*
%TO.C,D2*%
X4699000Y1272500D02*
X4699000Y-2787500D01*
X6969000Y1272500D02*
X4699000Y1272500D01*
X6969000Y-2787500D02*
X6969000Y1272500D01*
X6484000Y-1762500D02*
X5184000Y-1762500D01*
X5184000Y-1762500D02*
X5159000Y-1762500D01*
X5159000Y-1762500D02*
X5859000Y-712500D01*
X5859000Y-712500D02*
X6484000Y-1762500D01*
X6534000Y-687500D02*
X5159000Y-687500D01*
D11*
G36*
X6234000Y-1762500D02*
G01*
X5159000Y-1762500D01*
X5884000Y-762500D01*
X6459000Y-1762500D01*
X6234000Y-1762500D01*
G37*
X6234000Y-1762500D02*
X5159000Y-1762500D01*
X5884000Y-762500D01*
X6459000Y-1762500D01*
X6234000Y-1762500D01*
D10*
X6534000Y-612500D02*
X5159000Y-612500D01*
%TO.C,R1*%
X-6744000Y-572936D02*
X-6744000Y-2027064D01*
X-4924000Y-572936D02*
X-4924000Y-2027064D01*
%TD*%
M02*
