%TF.GenerationSoftware,KiCad,Pcbnew,(5.1.7)-1*%
%TF.CreationDate,2020-11-24T17:10:03-06:00*%
%TF.ProjectId,025mag-PROBE-BOARD_REV2,3032356d-6167-42d5-9052-4f42452d424f,rev?*%
%TF.SameCoordinates,Original*%
%TF.FileFunction,Other,Fab,Top*%
%FSLAX46Y46*%
G04 Gerber Fmt 4.6, Leading zero omitted, Abs format (unit mm)*
G04 Created by KiCad (PCBNEW (5.1.7)-1) date 2020-11-24 17:10:03*
%MOMM*%
%LPD*%
G01*
G04 APERTURE LIST*
%ADD10C,0.100000*%
%ADD11C,0.150000*%
%ADD12C,0.080000*%
%ADD13C,0.120000*%
G04 APERTURE END LIST*
D10*
%TO.C,REF\u002A\u002A*%
X1350000Y0D02*
X2350000Y-625000D01*
X2350000Y2450000D02*
X-3400000Y2450000D01*
X2350000Y625000D02*
X1350000Y0D01*
X-3400000Y-7450000D02*
X2350000Y-7450000D01*
X-3400000Y2450000D02*
X-3400000Y-7450000D01*
X2350000Y-7450000D02*
X2350000Y2450000D01*
%TO.C,D2*%
X6634000Y-2787500D02*
X6634000Y12500D01*
X6634000Y12500D02*
X6234000Y412500D01*
X6234000Y412500D02*
X5034000Y412500D01*
X5034000Y412500D02*
X5034000Y-2787500D01*
X5034000Y-2787500D02*
X6634000Y-2787500D01*
%TO.C,R1*%
X-6634000Y300000D02*
X-5034000Y300000D01*
X-5034000Y300000D02*
X-5034000Y-2900000D01*
X-5034000Y-2900000D02*
X-6634000Y-2900000D01*
X-6634000Y-2900000D02*
X-6634000Y300000D01*
%TD*%
%TO.C,REF\u002A\u002A*%
D11*
X-14199047Y427619D02*
X-14199047Y1427619D01*
X-13865714Y713333D01*
X-13532380Y1427619D01*
X-13532380Y427619D01*
X-12913333Y427619D02*
X-13008571Y475238D01*
X-13056190Y522857D01*
X-13103809Y618095D01*
X-13103809Y903809D01*
X-13056190Y999047D01*
X-13008571Y1046666D01*
X-12913333Y1094285D01*
X-12770476Y1094285D01*
X-12675238Y1046666D01*
X-12627619Y999047D01*
X-12580000Y903809D01*
X-12580000Y618095D01*
X-12627619Y522857D01*
X-12675238Y475238D01*
X-12770476Y427619D01*
X-12913333Y427619D01*
X-11722857Y1094285D02*
X-11722857Y427619D01*
X-12151428Y1094285D02*
X-12151428Y570476D01*
X-12103809Y475238D01*
X-12008571Y427619D01*
X-11865714Y427619D01*
X-11770476Y475238D01*
X-11722857Y522857D01*
X-11246666Y1094285D02*
X-11246666Y427619D01*
X-11246666Y999047D02*
X-11199047Y1046666D01*
X-11103809Y1094285D01*
X-10960952Y1094285D01*
X-10865714Y1046666D01*
X-10818095Y951428D01*
X-10818095Y427619D01*
X-10484761Y1094285D02*
X-10103809Y1094285D01*
X-10341904Y1427619D02*
X-10341904Y570476D01*
X-10294285Y475238D01*
X-10199047Y427619D01*
X-10103809Y427619D01*
X-9770476Y427619D02*
X-9770476Y1094285D01*
X-9770476Y1427619D02*
X-9818095Y1380000D01*
X-9770476Y1332380D01*
X-9722857Y1380000D01*
X-9770476Y1427619D01*
X-9770476Y1332380D01*
X-9294285Y1094285D02*
X-9294285Y427619D01*
X-9294285Y999047D02*
X-9246666Y1046666D01*
X-9151428Y1094285D01*
X-9008571Y1094285D01*
X-8913333Y1046666D01*
X-8865714Y951428D01*
X-8865714Y427619D01*
X-7960952Y1094285D02*
X-7960952Y284761D01*
X-8008571Y189523D01*
X-8056190Y141904D01*
X-8151428Y94285D01*
X-8294285Y94285D01*
X-8389523Y141904D01*
X-7960952Y475238D02*
X-8056190Y427619D01*
X-8246666Y427619D01*
X-8341904Y475238D01*
X-8389523Y522857D01*
X-8437142Y618095D01*
X-8437142Y903809D01*
X-8389523Y999047D01*
X-8341904Y1046666D01*
X-8246666Y1094285D01*
X-8056190Y1094285D01*
X-7960952Y1046666D01*
X-7484761Y427619D02*
X-7484761Y1427619D01*
X-7484761Y951428D02*
X-6913333Y951428D01*
X-6913333Y427619D02*
X-6913333Y1427619D01*
X-6294285Y427619D02*
X-6389523Y475238D01*
X-6437142Y522857D01*
X-6484761Y618095D01*
X-6484761Y903809D01*
X-6437142Y999047D01*
X-6389523Y1046666D01*
X-6294285Y1094285D01*
X-6151428Y1094285D01*
X-6056190Y1046666D01*
X-6008571Y999047D01*
X-5960952Y903809D01*
X-5960952Y618095D01*
X-6008571Y522857D01*
X-6056190Y475238D01*
X-6151428Y427619D01*
X-6294285Y427619D01*
X-5389523Y427619D02*
X-5484761Y475238D01*
X-5532380Y570476D01*
X-5532380Y1427619D01*
X-4627619Y475238D02*
X-4722857Y427619D01*
X-4913333Y427619D01*
X-5008571Y475238D01*
X-5056190Y570476D01*
X-5056190Y951428D01*
X-5008571Y1046666D01*
X-4913333Y1094285D01*
X-4722857Y1094285D01*
X-4627619Y1046666D01*
X-4580000Y951428D01*
X-4580000Y856190D01*
X-5056190Y760952D01*
X-4389523Y332380D02*
X-3627619Y332380D01*
X-3484761Y1427619D02*
X-2865714Y1427619D01*
X-3199047Y1046666D01*
X-3056190Y1046666D01*
X-2960952Y999047D01*
X-2913333Y951428D01*
X-2865714Y856190D01*
X-2865714Y618095D01*
X-2913333Y522857D01*
X-2960952Y475238D01*
X-3056190Y427619D01*
X-3341904Y427619D01*
X-3437142Y475238D01*
X-3484761Y522857D01*
X-2437142Y522857D02*
X-2389523Y475238D01*
X-2437142Y427619D01*
X-2484761Y475238D01*
X-2437142Y522857D01*
X-2437142Y427619D01*
X-2008571Y1332380D02*
X-1960952Y1380000D01*
X-1865714Y1427619D01*
X-1627619Y1427619D01*
X-1532380Y1380000D01*
X-1484761Y1332380D01*
X-1437142Y1237142D01*
X-1437142Y1141904D01*
X-1484761Y999047D01*
X-2056190Y427619D01*
X-1437142Y427619D01*
X-1008571Y427619D02*
X-1008571Y1094285D01*
X-1008571Y999047D02*
X-960952Y1046666D01*
X-865714Y1094285D01*
X-722857Y1094285D01*
X-627619Y1046666D01*
X-580000Y951428D01*
X-580000Y427619D01*
X-580000Y951428D02*
X-532380Y1046666D01*
X-437142Y1094285D01*
X-294285Y1094285D01*
X-199047Y1046666D01*
X-151428Y951428D01*
X-151428Y427619D01*
X324761Y427619D02*
X324761Y1094285D01*
X324761Y999047D02*
X372380Y1046666D01*
X467619Y1094285D01*
X610476Y1094285D01*
X705714Y1046666D01*
X753333Y951428D01*
X753333Y427619D01*
X753333Y951428D02*
X800952Y1046666D01*
X896190Y1094285D01*
X1039047Y1094285D01*
X1134285Y1046666D01*
X1181904Y951428D01*
X1181904Y427619D01*
X1419999Y332380D02*
X2181904Y332380D01*
X2419999Y427619D02*
X2419999Y1427619D01*
X2753333Y713333D01*
X3086666Y1427619D01*
X3086666Y427619D01*
X3467619Y1427619D02*
X4086666Y1427619D01*
X3753333Y1046666D01*
X3896190Y1046666D01*
X3991428Y999047D01*
X4039047Y951428D01*
X4086666Y856190D01*
X4086666Y618095D01*
X4039047Y522857D01*
X3991428Y475238D01*
X3896190Y427619D01*
X3610476Y427619D01*
X3515238Y475238D01*
X3467619Y522857D01*
X-6113333Y4627619D02*
X-6446666Y5103809D01*
X-6684761Y4627619D02*
X-6684761Y5627619D01*
X-6303809Y5627619D01*
X-6208571Y5580000D01*
X-6160952Y5532380D01*
X-6113333Y5437142D01*
X-6113333Y5294285D01*
X-6160952Y5199047D01*
X-6208571Y5151428D01*
X-6303809Y5103809D01*
X-6684761Y5103809D01*
X-5684761Y5151428D02*
X-5351428Y5151428D01*
X-5208571Y4627619D02*
X-5684761Y4627619D01*
X-5684761Y5627619D01*
X-5208571Y5627619D01*
X-4446666Y5151428D02*
X-4780000Y5151428D01*
X-4780000Y4627619D02*
X-4780000Y5627619D01*
X-4303809Y5627619D01*
X-3780000Y5627619D02*
X-3780000Y5389523D01*
X-4018095Y5484761D02*
X-3780000Y5389523D01*
X-3541904Y5484761D01*
X-3922857Y5199047D02*
X-3780000Y5389523D01*
X-3637142Y5199047D01*
X-3018095Y5627619D02*
X-3018095Y5389523D01*
X-3256190Y5484761D02*
X-3018095Y5389523D01*
X-2780000Y5484761D01*
X-3160952Y5199047D02*
X-3018095Y5389523D01*
X-2875238Y5199047D01*
%TO.C,SW1*%
X1674761Y-2745714D02*
X1722380Y-2602857D01*
X1722380Y-2364761D01*
X1674761Y-2269523D01*
X1627142Y-2221904D01*
X1531904Y-2174285D01*
X1436666Y-2174285D01*
X1341428Y-2221904D01*
X1293809Y-2269523D01*
X1246190Y-2364761D01*
X1198571Y-2555238D01*
X1150952Y-2650476D01*
X1103333Y-2698095D01*
X1008095Y-2745714D01*
X912857Y-2745714D01*
X817619Y-2698095D01*
X769999Y-2650476D01*
X722380Y-2555238D01*
X722380Y-2317142D01*
X769999Y-2174285D01*
X722380Y-1840952D02*
X1722380Y-1602857D01*
X1008095Y-1412380D01*
X1722380Y-1221904D01*
X722380Y-983809D01*
X1817619Y-840952D02*
X1817619Y-79047D01*
X1722380Y159047D02*
X722380Y159047D01*
X722380Y539999D01*
X769999Y635238D01*
X817619Y682857D01*
X912857Y730476D01*
X1055714Y730476D01*
X1150952Y682857D01*
X1198571Y635238D01*
X1246190Y539999D01*
X1246190Y159047D01*
X1055714Y1587619D02*
X1722380Y1587619D01*
X1055714Y1159047D02*
X1579523Y1159047D01*
X1674761Y1206666D01*
X1722380Y1301904D01*
X1722380Y1444761D01*
X1674761Y1540000D01*
X1627142Y1587619D01*
X1674761Y2016190D02*
X1722380Y2111428D01*
X1722380Y2301904D01*
X1674761Y2397142D01*
X1579523Y2444761D01*
X1531904Y2444761D01*
X1436666Y2397142D01*
X1389047Y2301904D01*
X1389047Y2159047D01*
X1341428Y2063809D01*
X1246190Y2016190D01*
X1198571Y2016190D01*
X1103333Y2063809D01*
X1055714Y2159047D01*
X1055714Y2301904D01*
X1103333Y2397142D01*
X1722380Y2873333D02*
X722380Y2873333D01*
X1722380Y3301904D02*
X1198571Y3301904D01*
X1103333Y3254285D01*
X1055714Y3159047D01*
X1055714Y3016190D01*
X1103333Y2920952D01*
X1150952Y2873333D01*
X1817619Y3540000D02*
X1817619Y4301904D01*
X722380Y4730476D02*
X722380Y4920952D01*
X770000Y5016190D01*
X865238Y5111428D01*
X1055714Y5159047D01*
X1389047Y5159047D01*
X1579523Y5111428D01*
X1674761Y5016190D01*
X1722380Y4920952D01*
X1722380Y4730476D01*
X1674761Y4635238D01*
X1579523Y4540000D01*
X1389047Y4492380D01*
X1055714Y4492380D01*
X865238Y4540000D01*
X770000Y4635238D01*
X722380Y4730476D01*
X1055714Y5587619D02*
X2055714Y5587619D01*
X1103333Y5587619D02*
X1055714Y5682857D01*
X1055714Y5873333D01*
X1103333Y5968571D01*
X1150952Y6016190D01*
X1246190Y6063809D01*
X1531904Y6063809D01*
X1627142Y6016190D01*
X1674761Y5968571D01*
X1722380Y5873333D01*
X1722380Y5682857D01*
X1674761Y5587619D01*
X1674761Y6873333D02*
X1722380Y6778095D01*
X1722380Y6587619D01*
X1674761Y6492380D01*
X1579523Y6444761D01*
X1198571Y6444761D01*
X1103333Y6492380D01*
X1055714Y6587619D01*
X1055714Y6778095D01*
X1103333Y6873333D01*
X1198571Y6920952D01*
X1293809Y6920952D01*
X1389047Y6444761D01*
X1055714Y7349523D02*
X1722380Y7349523D01*
X1150952Y7349523D02*
X1103333Y7397142D01*
X1055714Y7492380D01*
X1055714Y7635238D01*
X1103333Y7730476D01*
X1198571Y7778095D01*
X1722380Y7778095D01*
%TO.C,REF\u002A\u002A*%
X3227380Y-4608333D02*
X3941666Y-4608333D01*
X4084523Y-4655952D01*
X4179761Y-4751190D01*
X4227380Y-4894047D01*
X4227380Y-4989285D01*
X4179761Y-4179761D02*
X4227380Y-4036904D01*
X4227380Y-3798809D01*
X4179761Y-3703571D01*
X4132142Y-3655952D01*
X4036904Y-3608333D01*
X3941666Y-3608333D01*
X3846428Y-3655952D01*
X3798809Y-3703571D01*
X3751190Y-3798809D01*
X3703571Y-3989285D01*
X3655952Y-4084523D01*
X3608333Y-4132142D01*
X3513095Y-4179761D01*
X3417857Y-4179761D01*
X3322619Y-4132142D01*
X3275000Y-4084523D01*
X3227380Y-3989285D01*
X3227380Y-3751190D01*
X3275000Y-3608333D01*
X3227380Y-3322619D02*
X3227380Y-2751190D01*
X4227380Y-3036904D02*
X3227380Y-3036904D01*
X3846428Y-2417857D02*
X3846428Y-1655952D01*
X3227380Y-1275000D02*
X4227380Y-608333D01*
X3227380Y-608333D02*
X4227380Y-1275000D01*
X4227380Y-227380D02*
X3227380Y-227380D01*
X3703571Y-227380D02*
X3703571Y344047D01*
X4227380Y344047D02*
X3227380Y344047D01*
%TO.C,D2*%
X4636380Y-4330357D02*
X4636380Y-4806547D01*
X3636380Y-4806547D01*
X4112571Y-3997023D02*
X4112571Y-3663690D01*
X4636380Y-3520833D02*
X4636380Y-3997023D01*
X3636380Y-3997023D01*
X3636380Y-3520833D01*
X4636380Y-3092261D02*
X3636380Y-3092261D01*
X3636380Y-2854166D01*
X3684000Y-2711309D01*
X3779238Y-2616071D01*
X3874476Y-2568452D01*
X4064952Y-2520833D01*
X4207809Y-2520833D01*
X4398285Y-2568452D01*
X4493523Y-2616071D01*
X4588761Y-2711309D01*
X4636380Y-2854166D01*
X4636380Y-3092261D01*
X4731619Y-2330357D02*
X4731619Y-1568452D01*
X4588761Y-1377976D02*
X4636380Y-1235119D01*
X4636380Y-997023D01*
X4588761Y-901785D01*
X4541142Y-854166D01*
X4445904Y-806547D01*
X4350666Y-806547D01*
X4255428Y-854166D01*
X4207809Y-901785D01*
X4160190Y-997023D01*
X4112571Y-1187500D01*
X4064952Y-1282738D01*
X4017333Y-1330357D01*
X3922095Y-1377976D01*
X3826857Y-1377976D01*
X3731619Y-1330357D01*
X3684000Y-1282738D01*
X3636380Y-1187500D01*
X3636380Y-949404D01*
X3684000Y-806547D01*
X4636380Y-377976D02*
X3969714Y-377976D01*
X4064952Y-377976D02*
X4017333Y-330357D01*
X3969714Y-235119D01*
X3969714Y-92261D01*
X4017333Y2976D01*
X4112571Y50595D01*
X4636380Y50595D01*
X4112571Y50595D02*
X4017333Y98214D01*
X3969714Y193452D01*
X3969714Y336309D01*
X4017333Y431547D01*
X4112571Y479166D01*
X4636380Y479166D01*
X4636380Y1383928D02*
X4112571Y1383928D01*
X4017333Y1336309D01*
X3969714Y1241071D01*
X3969714Y1050595D01*
X4017333Y955357D01*
X4588761Y1383928D02*
X4636380Y1288690D01*
X4636380Y1050595D01*
X4588761Y955357D01*
X4493523Y907738D01*
X4398285Y907738D01*
X4303047Y955357D01*
X4255428Y1050595D01*
X4255428Y1288690D01*
X4207809Y1383928D01*
X4636380Y2002976D02*
X4588761Y1907738D01*
X4493523Y1860119D01*
X3636380Y1860119D01*
X4636380Y2526785D02*
X4588761Y2431547D01*
X4493523Y2383928D01*
X3636380Y2383928D01*
D12*
X6060190Y-1556547D02*
X5560190Y-1556547D01*
X5560190Y-1437500D01*
X5584000Y-1366071D01*
X5631619Y-1318452D01*
X5679238Y-1294642D01*
X5774476Y-1270833D01*
X5845904Y-1270833D01*
X5941142Y-1294642D01*
X5988761Y-1318452D01*
X6036380Y-1366071D01*
X6060190Y-1437500D01*
X6060190Y-1556547D01*
X5607809Y-1080357D02*
X5584000Y-1056547D01*
X5560190Y-1008928D01*
X5560190Y-889880D01*
X5584000Y-842261D01*
X5607809Y-818452D01*
X5655428Y-794642D01*
X5703047Y-794642D01*
X5774476Y-818452D01*
X6060190Y-1104166D01*
X6060190Y-794642D01*
%TO.C,REF\u002A\u002A*%
D11*
X-7949999Y7897619D02*
X-7949999Y8897619D01*
X-7616666Y8183333D01*
X-7283333Y8897619D01*
X-7283333Y7897619D01*
X-6902380Y8897619D02*
X-6283333Y8897619D01*
X-6616666Y8516666D01*
X-6473809Y8516666D01*
X-6378571Y8469047D01*
X-6330952Y8421428D01*
X-6283333Y8326190D01*
X-6283333Y8088095D01*
X-6330952Y7992857D01*
X-6378571Y7945238D01*
X-6473809Y7897619D01*
X-6759523Y7897619D01*
X-6854761Y7945238D01*
X-6902380Y7992857D01*
X-5854761Y7897619D02*
X-5854761Y8897619D01*
X-5854761Y8421428D02*
X-5283333Y8421428D01*
X-5283333Y7897619D02*
X-5283333Y8897619D01*
X-4426190Y7945238D02*
X-4521428Y7897619D01*
X-4711904Y7897619D01*
X-4807142Y7945238D01*
X-4854761Y8040476D01*
X-4854761Y8421428D01*
X-4807142Y8516666D01*
X-4711904Y8564285D01*
X-4521428Y8564285D01*
X-4426190Y8516666D01*
X-4378571Y8421428D01*
X-4378571Y8326190D01*
X-4854761Y8230952D01*
X-3521428Y7897619D02*
X-3521428Y8421428D01*
X-3569047Y8516666D01*
X-3664285Y8564285D01*
X-3854761Y8564285D01*
X-3949999Y8516666D01*
X-3521428Y7945238D02*
X-3616666Y7897619D01*
X-3854761Y7897619D01*
X-3949999Y7945238D01*
X-3997619Y8040476D01*
X-3997619Y8135714D01*
X-3949999Y8230952D01*
X-3854761Y8278571D01*
X-3616666Y8278571D01*
X-3521428Y8326190D01*
X-3188095Y8564285D02*
X-2807142Y8564285D01*
X-3045238Y8897619D02*
X-3045238Y8040476D01*
X-2997619Y7945238D01*
X-2902380Y7897619D01*
X-2807142Y7897619D01*
X-2521428Y7945238D02*
X-2426190Y7897619D01*
X-2235714Y7897619D01*
X-2140476Y7945238D01*
X-2092857Y8040476D01*
X-2092857Y8088095D01*
X-2140476Y8183333D01*
X-2235714Y8230952D01*
X-2378571Y8230952D01*
X-2473809Y8278571D01*
X-2521428Y8373809D01*
X-2521428Y8421428D01*
X-2473809Y8516666D01*
X-2378571Y8564285D01*
X-2235714Y8564285D01*
X-2140476Y8516666D01*
X-1664285Y7897619D02*
X-1664285Y8564285D01*
X-1664285Y8373809D02*
X-1616666Y8469047D01*
X-1569047Y8516666D01*
X-1473809Y8564285D01*
X-1378571Y8564285D01*
X-1188095Y8564285D02*
X-807142Y8564285D01*
X-1045238Y8897619D02*
X-1045238Y8040476D01*
X-997619Y7945238D01*
X-902380Y7897619D01*
X-807142Y7897619D01*
X950000Y7947619D02*
X950000Y8947619D01*
X1283333Y8233333D01*
X1616666Y8947619D01*
X1616666Y7947619D01*
X1997619Y8947619D02*
X2616666Y8947619D01*
X2283333Y8566666D01*
X2426190Y8566666D01*
X2521428Y8519047D01*
X2569047Y8471428D01*
X2616666Y8376190D01*
X2616666Y8138095D01*
X2569047Y8042857D01*
X2521428Y7995238D01*
X2426190Y7947619D01*
X2140476Y7947619D01*
X2045238Y7995238D01*
X1997619Y8042857D01*
X3045238Y7947619D02*
X3045238Y8947619D01*
X3045238Y8471428D02*
X3616666Y8471428D01*
X3616666Y7947619D02*
X3616666Y8947619D01*
X4473809Y7995238D02*
X4378571Y7947619D01*
X4188095Y7947619D01*
X4092857Y7995238D01*
X4045238Y8090476D01*
X4045238Y8471428D01*
X4092857Y8566666D01*
X4188095Y8614285D01*
X4378571Y8614285D01*
X4473809Y8566666D01*
X4521428Y8471428D01*
X4521428Y8376190D01*
X4045238Y8280952D01*
X5378571Y7947619D02*
X5378571Y8471428D01*
X5330952Y8566666D01*
X5235714Y8614285D01*
X5045238Y8614285D01*
X4950000Y8566666D01*
X5378571Y7995238D02*
X5283333Y7947619D01*
X5045238Y7947619D01*
X4950000Y7995238D01*
X4902380Y8090476D01*
X4902380Y8185714D01*
X4950000Y8280952D01*
X5045238Y8328571D01*
X5283333Y8328571D01*
X5378571Y8376190D01*
X5711904Y8614285D02*
X6092857Y8614285D01*
X5854761Y8947619D02*
X5854761Y8090476D01*
X5902380Y7995238D01*
X5997619Y7947619D01*
X6092857Y7947619D01*
X6378571Y7995238D02*
X6473809Y7947619D01*
X6664285Y7947619D01*
X6759523Y7995238D01*
X6807142Y8090476D01*
X6807142Y8138095D01*
X6759523Y8233333D01*
X6664285Y8280952D01*
X6521428Y8280952D01*
X6426190Y8328571D01*
X6378571Y8423809D01*
X6378571Y8471428D01*
X6426190Y8566666D01*
X6521428Y8614285D01*
X6664285Y8614285D01*
X6759523Y8566666D01*
X7235714Y7947619D02*
X7235714Y8614285D01*
X7235714Y8423809D02*
X7283333Y8519047D01*
X7330952Y8566666D01*
X7426190Y8614285D01*
X7521428Y8614285D01*
X7711904Y8614285D02*
X8092857Y8614285D01*
X7854761Y8947619D02*
X7854761Y8090476D01*
X7902380Y7995238D01*
X7997619Y7947619D01*
X8092857Y7947619D01*
%TO.C,R1*%
X-7201619Y-1419047D02*
X-7201619Y-1990476D01*
X-7201619Y-1704761D02*
X-8201619Y-1704761D01*
X-8058761Y-1800000D01*
X-7963523Y-1895238D01*
X-7915904Y-1990476D01*
X-7201619Y-990476D02*
X-8201619Y-990476D01*
X-7582571Y-895238D02*
X-7201619Y-609523D01*
X-7868285Y-609523D02*
X-7487333Y-990476D01*
D13*
X-5472095Y-1433333D02*
X-5853047Y-1700000D01*
X-5472095Y-1890476D02*
X-6272095Y-1890476D01*
X-6272095Y-1585714D01*
X-6234000Y-1509523D01*
X-6195904Y-1471428D01*
X-6119714Y-1433333D01*
X-6005428Y-1433333D01*
X-5929238Y-1471428D01*
X-5891142Y-1509523D01*
X-5853047Y-1585714D01*
X-5853047Y-1890476D01*
X-5472095Y-671428D02*
X-5472095Y-1128571D01*
X-5472095Y-900000D02*
X-6272095Y-900000D01*
X-6157809Y-976190D01*
X-6081619Y-1052380D01*
X-6043523Y-1128571D01*
%TO.C,REF\u002A\u002A*%
D11*
X-4039047Y427619D02*
X-4039047Y1427619D01*
X-3705714Y713333D01*
X-3372380Y1427619D01*
X-3372380Y427619D01*
X-2753333Y427619D02*
X-2848571Y475238D01*
X-2896190Y522857D01*
X-2943809Y618095D01*
X-2943809Y903809D01*
X-2896190Y999047D01*
X-2848571Y1046666D01*
X-2753333Y1094285D01*
X-2610476Y1094285D01*
X-2515238Y1046666D01*
X-2467619Y999047D01*
X-2420000Y903809D01*
X-2420000Y618095D01*
X-2467619Y522857D01*
X-2515238Y475238D01*
X-2610476Y427619D01*
X-2753333Y427619D01*
X-1562857Y1094285D02*
X-1562857Y427619D01*
X-1991428Y1094285D02*
X-1991428Y570476D01*
X-1943809Y475238D01*
X-1848571Y427619D01*
X-1705714Y427619D01*
X-1610476Y475238D01*
X-1562857Y522857D01*
X-1086666Y1094285D02*
X-1086666Y427619D01*
X-1086666Y999047D02*
X-1039047Y1046666D01*
X-943809Y1094285D01*
X-800952Y1094285D01*
X-705714Y1046666D01*
X-658095Y951428D01*
X-658095Y427619D01*
X-324761Y1094285D02*
X56190Y1094285D01*
X-181904Y1427619D02*
X-181904Y570476D01*
X-134285Y475238D01*
X-39047Y427619D01*
X56190Y427619D01*
X389523Y427619D02*
X389523Y1094285D01*
X389523Y1427619D02*
X341904Y1380000D01*
X389523Y1332380D01*
X437142Y1380000D01*
X389523Y1427619D01*
X389523Y1332380D01*
X865714Y1094285D02*
X865714Y427619D01*
X865714Y999047D02*
X913333Y1046666D01*
X1008571Y1094285D01*
X1151428Y1094285D01*
X1246666Y1046666D01*
X1294285Y951428D01*
X1294285Y427619D01*
X2199047Y1094285D02*
X2199047Y284761D01*
X2151428Y189523D01*
X2103809Y141904D01*
X2008571Y94285D01*
X1865714Y94285D01*
X1770476Y141904D01*
X2199047Y475238D02*
X2103809Y427619D01*
X1913333Y427619D01*
X1818095Y475238D01*
X1770476Y522857D01*
X1722857Y618095D01*
X1722857Y903809D01*
X1770476Y999047D01*
X1818095Y1046666D01*
X1913333Y1094285D01*
X2103809Y1094285D01*
X2199047Y1046666D01*
X2675238Y427619D02*
X2675238Y1427619D01*
X2675238Y951428D02*
X3246666Y951428D01*
X3246666Y427619D02*
X3246666Y1427619D01*
X3865714Y427619D02*
X3770476Y475238D01*
X3722857Y522857D01*
X3675238Y618095D01*
X3675238Y903809D01*
X3722857Y999047D01*
X3770476Y1046666D01*
X3865714Y1094285D01*
X4008571Y1094285D01*
X4103809Y1046666D01*
X4151428Y999047D01*
X4199047Y903809D01*
X4199047Y618095D01*
X4151428Y522857D01*
X4103809Y475238D01*
X4008571Y427619D01*
X3865714Y427619D01*
X4770476Y427619D02*
X4675238Y475238D01*
X4627619Y570476D01*
X4627619Y1427619D01*
X5532380Y475238D02*
X5437142Y427619D01*
X5246666Y427619D01*
X5151428Y475238D01*
X5103809Y570476D01*
X5103809Y951428D01*
X5151428Y1046666D01*
X5246666Y1094285D01*
X5437142Y1094285D01*
X5532380Y1046666D01*
X5579999Y951428D01*
X5579999Y856190D01*
X5103809Y760952D01*
X5770476Y332380D02*
X6532380Y332380D01*
X6675238Y1427619D02*
X7294285Y1427619D01*
X6960952Y1046666D01*
X7103809Y1046666D01*
X7199047Y999047D01*
X7246666Y951428D01*
X7294285Y856190D01*
X7294285Y618095D01*
X7246666Y522857D01*
X7199047Y475238D01*
X7103809Y427619D01*
X6818095Y427619D01*
X6722857Y475238D01*
X6675238Y522857D01*
X7722857Y522857D02*
X7770476Y475238D01*
X7722857Y427619D01*
X7675238Y475238D01*
X7722857Y522857D01*
X7722857Y427619D01*
X8151428Y1332380D02*
X8199047Y1380000D01*
X8294285Y1427619D01*
X8532380Y1427619D01*
X8627619Y1380000D01*
X8675238Y1332380D01*
X8722857Y1237142D01*
X8722857Y1141904D01*
X8675238Y999047D01*
X8103809Y427619D01*
X8722857Y427619D01*
X9151428Y427619D02*
X9151428Y1094285D01*
X9151428Y999047D02*
X9199047Y1046666D01*
X9294285Y1094285D01*
X9437142Y1094285D01*
X9532380Y1046666D01*
X9579999Y951428D01*
X9579999Y427619D01*
X9579999Y951428D02*
X9627619Y1046666D01*
X9722857Y1094285D01*
X9865714Y1094285D01*
X9960952Y1046666D01*
X10008571Y951428D01*
X10008571Y427619D01*
X10484761Y427619D02*
X10484761Y1094285D01*
X10484761Y999047D02*
X10532380Y1046666D01*
X10627619Y1094285D01*
X10770476Y1094285D01*
X10865714Y1046666D01*
X10913333Y951428D01*
X10913333Y427619D01*
X10913333Y951428D02*
X10960952Y1046666D01*
X11056190Y1094285D01*
X11199047Y1094285D01*
X11294285Y1046666D01*
X11341904Y951428D01*
X11341904Y427619D01*
X11579999Y332380D02*
X12341904Y332380D01*
X12579999Y427619D02*
X12579999Y1427619D01*
X12913333Y713333D01*
X13246666Y1427619D01*
X13246666Y427619D01*
X13627619Y1427619D02*
X14246666Y1427619D01*
X13913333Y1046666D01*
X14056190Y1046666D01*
X14151428Y999047D01*
X14199047Y951428D01*
X14246666Y856190D01*
X14246666Y618095D01*
X14199047Y522857D01*
X14151428Y475238D01*
X14056190Y427619D01*
X13770476Y427619D01*
X13675238Y475238D01*
X13627619Y522857D01*
X4046666Y4627619D02*
X3713333Y5103809D01*
X3475238Y4627619D02*
X3475238Y5627619D01*
X3856190Y5627619D01*
X3951428Y5580000D01*
X3999047Y5532380D01*
X4046666Y5437142D01*
X4046666Y5294285D01*
X3999047Y5199047D01*
X3951428Y5151428D01*
X3856190Y5103809D01*
X3475238Y5103809D01*
X4475238Y5151428D02*
X4808571Y5151428D01*
X4951428Y4627619D02*
X4475238Y4627619D01*
X4475238Y5627619D01*
X4951428Y5627619D01*
X5713333Y5151428D02*
X5380000Y5151428D01*
X5380000Y4627619D02*
X5380000Y5627619D01*
X5856190Y5627619D01*
X6380000Y5627619D02*
X6380000Y5389523D01*
X6141904Y5484761D02*
X6380000Y5389523D01*
X6618095Y5484761D01*
X6237142Y5199047D02*
X6380000Y5389523D01*
X6522857Y5199047D01*
X7141904Y5627619D02*
X7141904Y5389523D01*
X6903809Y5484761D02*
X7141904Y5389523D01*
X7380000Y5484761D01*
X6999047Y5199047D02*
X7141904Y5389523D01*
X7284761Y5199047D01*
%TO.C,MAG2*%
X-3738095Y-10017142D02*
X-3785714Y-10064761D01*
X-3928571Y-10112380D01*
X-4023809Y-10112380D01*
X-4166666Y-10064761D01*
X-4261904Y-9969523D01*
X-4309523Y-9874285D01*
X-4357142Y-9683809D01*
X-4357142Y-9540952D01*
X-4309523Y-9350476D01*
X-4261904Y-9255238D01*
X-4166666Y-9160000D01*
X-4023809Y-9112380D01*
X-3928571Y-9112380D01*
X-3785714Y-9160000D01*
X-3738095Y-9207619D01*
X-3166666Y-10112380D02*
X-3261904Y-10064761D01*
X-3309523Y-10017142D01*
X-3357142Y-9921904D01*
X-3357142Y-9636190D01*
X-3309523Y-9540952D01*
X-3261904Y-9493333D01*
X-3166666Y-9445714D01*
X-3023809Y-9445714D01*
X-2928571Y-9493333D01*
X-2880952Y-9540952D01*
X-2833333Y-9636190D01*
X-2833333Y-9921904D01*
X-2880952Y-10017142D01*
X-2928571Y-10064761D01*
X-3023809Y-10112380D01*
X-3166666Y-10112380D01*
X-2404761Y-9445714D02*
X-2404761Y-10112380D01*
X-2404761Y-9540952D02*
X-2357142Y-9493333D01*
X-2261904Y-9445714D01*
X-2119047Y-9445714D01*
X-2023809Y-9493333D01*
X-1976190Y-9588571D01*
X-1976190Y-10112380D01*
X-1500000Y-9445714D02*
X-1500000Y-10112380D01*
X-1500000Y-9540952D02*
X-1452380Y-9493333D01*
X-1357142Y-9445714D01*
X-1214285Y-9445714D01*
X-1119047Y-9493333D01*
X-1071428Y-9588571D01*
X-1071428Y-10112380D01*
X-833333Y-10207619D02*
X-71428Y-10207619D01*
X357142Y-9112380D02*
X452380Y-9112380D01*
X547619Y-9160000D01*
X595238Y-9207619D01*
X642857Y-9302857D01*
X690476Y-9493333D01*
X690476Y-9731428D01*
X642857Y-9921904D01*
X595238Y-10017142D01*
X547619Y-10064761D01*
X452380Y-10112380D01*
X357142Y-10112380D01*
X261904Y-10064761D01*
X214285Y-10017142D01*
X166666Y-9921904D01*
X119047Y-9731428D01*
X119047Y-9493333D01*
X166666Y-9302857D01*
X214285Y-9207619D01*
X261904Y-9160000D01*
X357142Y-9112380D01*
X1642857Y-10112380D02*
X1071428Y-10112380D01*
X1357142Y-10112380D02*
X1357142Y-9112380D01*
X1261904Y-9255238D01*
X1166666Y-9350476D01*
X1071428Y-9398095D01*
X1976190Y-10112380D02*
X2500000Y-9445714D01*
X1976190Y-9445714D02*
X2500000Y-10112380D01*
X3071428Y-9112380D02*
X3166666Y-9112380D01*
X3261904Y-9160000D01*
X3309523Y-9207619D01*
X3357142Y-9302857D01*
X3404761Y-9493333D01*
X3404761Y-9731428D01*
X3357142Y-9921904D01*
X3309523Y-10017142D01*
X3261904Y-10064761D01*
X3166666Y-10112380D01*
X3071428Y-10112380D01*
X2976190Y-10064761D01*
X2928571Y-10017142D01*
X2880952Y-9921904D01*
X2833333Y-9731428D01*
X2833333Y-9493333D01*
X2880952Y-9302857D01*
X2928571Y-9207619D01*
X2976190Y-9160000D01*
X3071428Y-9112380D01*
X4357142Y-10112380D02*
X3785714Y-10112380D01*
X4071428Y-10112380D02*
X4071428Y-9112380D01*
X3976190Y-9255238D01*
X3880952Y-9350476D01*
X3785714Y-9398095D01*
%TO.C,MAG1*%
X-3738095Y10302857D02*
X-3785714Y10255238D01*
X-3928571Y10207619D01*
X-4023809Y10207619D01*
X-4166666Y10255238D01*
X-4261904Y10350476D01*
X-4309523Y10445714D01*
X-4357142Y10636190D01*
X-4357142Y10779047D01*
X-4309523Y10969523D01*
X-4261904Y11064761D01*
X-4166666Y11160000D01*
X-4023809Y11207619D01*
X-3928571Y11207619D01*
X-3785714Y11160000D01*
X-3738095Y11112380D01*
X-3166666Y10207619D02*
X-3261904Y10255238D01*
X-3309523Y10302857D01*
X-3357142Y10398095D01*
X-3357142Y10683809D01*
X-3309523Y10779047D01*
X-3261904Y10826666D01*
X-3166666Y10874285D01*
X-3023809Y10874285D01*
X-2928571Y10826666D01*
X-2880952Y10779047D01*
X-2833333Y10683809D01*
X-2833333Y10398095D01*
X-2880952Y10302857D01*
X-2928571Y10255238D01*
X-3023809Y10207619D01*
X-3166666Y10207619D01*
X-2404761Y10874285D02*
X-2404761Y10207619D01*
X-2404761Y10779047D02*
X-2357142Y10826666D01*
X-2261904Y10874285D01*
X-2119047Y10874285D01*
X-2023809Y10826666D01*
X-1976190Y10731428D01*
X-1976190Y10207619D01*
X-1500000Y10874285D02*
X-1500000Y10207619D01*
X-1500000Y10779047D02*
X-1452380Y10826666D01*
X-1357142Y10874285D01*
X-1214285Y10874285D01*
X-1119047Y10826666D01*
X-1071428Y10731428D01*
X-1071428Y10207619D01*
X-833333Y10112380D02*
X-71428Y10112380D01*
X357142Y11207619D02*
X452380Y11207619D01*
X547619Y11160000D01*
X595238Y11112380D01*
X642857Y11017142D01*
X690476Y10826666D01*
X690476Y10588571D01*
X642857Y10398095D01*
X595238Y10302857D01*
X547619Y10255238D01*
X452380Y10207619D01*
X357142Y10207619D01*
X261904Y10255238D01*
X214285Y10302857D01*
X166666Y10398095D01*
X119047Y10588571D01*
X119047Y10826666D01*
X166666Y11017142D01*
X214285Y11112380D01*
X261904Y11160000D01*
X357142Y11207619D01*
X1642857Y10207619D02*
X1071428Y10207619D01*
X1357142Y10207619D02*
X1357142Y11207619D01*
X1261904Y11064761D01*
X1166666Y10969523D01*
X1071428Y10921904D01*
X1976190Y10207619D02*
X2500000Y10874285D01*
X1976190Y10874285D02*
X2500000Y10207619D01*
X3071428Y11207619D02*
X3166666Y11207619D01*
X3261904Y11160000D01*
X3309523Y11112380D01*
X3357142Y11017142D01*
X3404761Y10826666D01*
X3404761Y10588571D01*
X3357142Y10398095D01*
X3309523Y10302857D01*
X3261904Y10255238D01*
X3166666Y10207619D01*
X3071428Y10207619D01*
X2976190Y10255238D01*
X2928571Y10302857D01*
X2880952Y10398095D01*
X2833333Y10588571D01*
X2833333Y10826666D01*
X2880952Y11017142D01*
X2928571Y11112380D01*
X2976190Y11160000D01*
X3071428Y11207619D01*
X4357142Y10207619D02*
X3785714Y10207619D01*
X4071428Y10207619D02*
X4071428Y11207619D01*
X3976190Y11064761D01*
X3880952Y10969523D01*
X3785714Y10921904D01*
%TD*%
M02*
