%TF.GenerationSoftware,KiCad,Pcbnew,(5.1.7)-1*%
%TF.CreationDate,2020-11-26T14:29:50-06:00*%
%TF.ProjectId,025mag-PROBE-BOARD_REV2,3032356d-6167-42d5-9052-4f42452d424f,rev?*%
%TF.SameCoordinates,Original*%
%TF.FileFunction,Copper,L1,Top*%
%TF.FilePolarity,Positive*%
%FSLAX46Y46*%
G04 Gerber Fmt 4.6, Leading zero omitted, Abs format (unit mm)*
G04 Created by KiCad (PCBNEW (5.1.7)-1) date 2020-11-26 14:29:50*
%MOMM*%
%LPD*%
G01*
G04 APERTURE LIST*
%TA.AperFunction,ComponentPad*%
%ADD10C,1.800000*%
%TD*%
%TA.AperFunction,ComponentPad*%
%ADD11C,2.250000*%
%TD*%
%TA.AperFunction,ComponentPad*%
%ADD12O,1.950000X1.700000*%
%TD*%
%TA.AperFunction,ComponentPad*%
%ADD13C,6.400000*%
%TD*%
%TA.AperFunction,ViaPad*%
%ADD14C,0.800000*%
%TD*%
%TA.AperFunction,Conductor*%
%ADD15C,0.500000*%
%TD*%
%TA.AperFunction,Conductor*%
%ADD16C,1.500000*%
%TD*%
G04 APERTURE END LIST*
D10*
%TO.P,SW1,4*%
%TO.N,SIGNAL*%
X0Y-2540000D03*
D11*
%TO.P,SW1,3*%
%TO.N,VCC*%
X0Y0D03*
%TO.P,SW1,2*%
%TO.N,SIGNAL*%
X0Y5080000D03*
%TO.P,SW1,1*%
%TO.N,GND*%
X0Y-5080000D03*
%TD*%
D12*
%TO.P,REF\u002A\u002A,3*%
%TO.N,GND*%
X0Y-5000000D03*
%TO.P,REF\u002A\u002A,1*%
%TO.N,N/C*%
%TA.AperFunction,ComponentPad*%
G36*
G01*
X-725000Y850000D02*
X725000Y850000D01*
G75*
G02*
X975000Y600000I0J-250000D01*
G01*
X975000Y-600000D01*
G75*
G02*
X725000Y-850000I-250000J0D01*
G01*
X-725000Y-850000D01*
G75*
G02*
X-975000Y-600000I0J250000D01*
G01*
X-975000Y600000D01*
G75*
G02*
X-725000Y850000I250000J0D01*
G01*
G37*
%TD.AperFunction*%
%TO.P,REF\u002A\u002A,2*%
%TO.N,SIGNAL*%
X0Y-2500000D03*
%TD*%
%TO.P,D2,2*%
%TO.N,Net-(D2-Pad2)*%
%TA.AperFunction,SMDPad,CuDef*%
G36*
G01*
X5209000Y-1962500D02*
X6459000Y-1962500D01*
G75*
G02*
X6709000Y-2212500I0J-250000D01*
G01*
X6709000Y-3137500D01*
G75*
G02*
X6459000Y-3387500I-250000J0D01*
G01*
X5209000Y-3387500D01*
G75*
G02*
X4959000Y-3137500I0J250000D01*
G01*
X4959000Y-2212500D01*
G75*
G02*
X5209000Y-1962500I250000J0D01*
G01*
G37*
%TD.AperFunction*%
%TO.P,D2,1*%
%TO.N,SIGNAL*%
%TA.AperFunction,SMDPad,CuDef*%
G36*
G01*
X5209000Y1012500D02*
X6459000Y1012500D01*
G75*
G02*
X6709000Y762500I0J-250000D01*
G01*
X6709000Y-162500D01*
G75*
G02*
X6459000Y-412500I-250000J0D01*
G01*
X5209000Y-412500D01*
G75*
G02*
X4959000Y-162500I0J250000D01*
G01*
X4959000Y762500D01*
G75*
G02*
X5209000Y1012500I250000J0D01*
G01*
G37*
%TD.AperFunction*%
%TD*%
%TO.P,R1,2*%
%TO.N,Net-(D1-Pad2)*%
%TA.AperFunction,SMDPad,CuDef*%
G36*
G01*
X-6459001Y-2200000D02*
X-5208999Y-2200000D01*
G75*
G02*
X-4959000Y-2449999I0J-249999D01*
G01*
X-4959000Y-3250001D01*
G75*
G02*
X-5208999Y-3500000I-249999J0D01*
G01*
X-6459001Y-3500000D01*
G75*
G02*
X-6709000Y-3250001I0J249999D01*
G01*
X-6709000Y-2449999D01*
G75*
G02*
X-6459001Y-2200000I249999J0D01*
G01*
G37*
%TD.AperFunction*%
%TO.P,R1,1*%
%TO.N,VCC*%
%TA.AperFunction,SMDPad,CuDef*%
G36*
G01*
X-6459001Y900000D02*
X-5208999Y900000D01*
G75*
G02*
X-4959000Y650001I0J-249999D01*
G01*
X-4959000Y-150001D01*
G75*
G02*
X-5208999Y-400000I-249999J0D01*
G01*
X-6459001Y-400000D01*
G75*
G02*
X-6709000Y-150001I0J249999D01*
G01*
X-6709000Y650001D01*
G75*
G02*
X-6459001Y900000I249999J0D01*
G01*
G37*
%TD.AperFunction*%
%TD*%
D13*
%TO.P,MAG2,1*%
%TO.N,GND*%
X0Y-10160000D03*
%TD*%
%TO.P,MAG1,1*%
%TO.N,SIGNAL*%
X0Y10160000D03*
%TD*%
D14*
%TO.N,GND*%
X0Y-7620000D03*
X0Y-12700000D03*
X-1795800Y-8364200D03*
X2540000Y-10160000D03*
X-1795800Y-11955700D03*
X1778000Y-11955800D03*
X-2540000Y-10160000D03*
X1795800Y-8364200D03*
%TO.N,SIGNAL*%
X0Y12700000D03*
X2540000Y10160000D03*
X-2540000Y10160000D03*
X-1795800Y11955800D03*
X1795800Y11955800D03*
X1778000Y8364200D03*
X-1795800Y8364300D03*
X0Y7620000D03*
%TO.N,Net-(D1-Pad2)*%
X-5834000Y-4576000D03*
%TO.N,Net-(D2-Pad2)*%
X5834000Y-4326000D03*
%TD*%
D15*
%TO.N,VCC*%
X0Y0D02*
X-87000Y0D01*
X0Y0D02*
X-5334000Y0D01*
D16*
%TO.N,GND*%
X0Y-5080000D02*
X0Y-10750000D01*
%TO.N,SIGNAL*%
X0Y10750000D02*
X0Y5080000D01*
D15*
X0Y5080000D02*
X0Y4318000D01*
X0Y-2540000D02*
X0Y-2589500D01*
X0Y5080000D02*
X762000Y5080000D01*
X-508000Y4572000D02*
X0Y5080000D01*
X762000Y5080000D02*
X1778000Y4064000D01*
X1778000Y-762000D02*
X0Y-2540000D01*
X1978000Y-200000D02*
X1778000Y0D01*
X4826000Y-200000D02*
X1978000Y-200000D01*
X1778000Y0D02*
X1778000Y-762000D01*
X1778000Y4064000D02*
X1778000Y0D01*
X5326000Y300000D02*
X4826000Y-200000D01*
X5834000Y300000D02*
X5326000Y300000D01*
D16*
%TO.N,Net-(D2-Pad2)*%
X5834000Y-2675000D02*
X5834000Y-4326000D01*
%TD*%
M02*
