%TF.GenerationSoftware,KiCad,Pcbnew,(5.1.7)-1*%
%TF.CreationDate,2020-11-20T21:44:25-06:00*%
%TF.ProjectId,PROBE-BOARD,50524f42-452d-4424-9f41-52442e6b6963,rev?*%
%TF.SameCoordinates,Original*%
%TF.FileFunction,Other,Fab,Bot*%
%FSLAX46Y46*%
G04 Gerber Fmt 4.6, Leading zero omitted, Abs format (unit mm)*
G04 Created by KiCad (PCBNEW (5.1.7)-1) date 2020-11-20 21:44:25*
%MOMM*%
%LPD*%
G01*
G04 APERTURE LIST*
%ADD10C,0.100000*%
%ADD11C,0.150000*%
%ADD12C,0.060000*%
%ADD13C,0.080000*%
G04 APERTURE END LIST*
D10*
%TO.C,R2*%
X-3353000Y-1498500D02*
X-3353000Y101500D01*
X-3353000Y101500D02*
X-6553000Y101500D01*
X-6553000Y101500D02*
X-6553000Y-1498500D01*
X-6553000Y-1498500D02*
X-3353000Y-1498500D01*
%TO.C,D2*%
X-5431500Y-3570000D02*
X-3831500Y-3570000D01*
X-5431500Y-6770000D02*
X-5431500Y-3570000D01*
X-4231500Y-6770000D02*
X-5431500Y-6770000D01*
X-3831500Y-6370000D02*
X-4231500Y-6770000D01*
X-3831500Y-3570000D02*
X-3831500Y-6370000D01*
%TD*%
%TO.C,R2*%
D11*
X-4833952Y-2580880D02*
X-4262523Y-2580880D01*
X-4548238Y-2580880D02*
X-4548238Y-1580880D01*
X-4453000Y-1723738D01*
X-4357761Y-1818976D01*
X-4262523Y-1866595D01*
X-5262523Y-2580880D02*
X-5262523Y-1580880D01*
X-5357761Y-2199928D02*
X-5643476Y-2580880D01*
X-5643476Y-1914214D02*
X-5262523Y-2295166D01*
D12*
X-4886333Y-879452D02*
X-4753000Y-688976D01*
X-4657761Y-879452D02*
X-4657761Y-479452D01*
X-4810142Y-479452D01*
X-4848238Y-498500D01*
X-4867285Y-517547D01*
X-4886333Y-555642D01*
X-4886333Y-612785D01*
X-4867285Y-650880D01*
X-4848238Y-669928D01*
X-4810142Y-688976D01*
X-4657761Y-688976D01*
X-5038714Y-517547D02*
X-5057761Y-498500D01*
X-5095857Y-479452D01*
X-5191095Y-479452D01*
X-5229190Y-498500D01*
X-5248238Y-517547D01*
X-5267285Y-555642D01*
X-5267285Y-593738D01*
X-5248238Y-650880D01*
X-5019666Y-879452D01*
X-5267285Y-879452D01*
%TO.C,D2*%
D11*
X-5829119Y-2027142D02*
X-5829119Y-1550952D01*
X-6829119Y-1550952D01*
X-6352928Y-2360476D02*
X-6352928Y-2693809D01*
X-5829119Y-2836666D02*
X-5829119Y-2360476D01*
X-6829119Y-2360476D01*
X-6829119Y-2836666D01*
X-5829119Y-3265238D02*
X-6829119Y-3265238D01*
X-6829119Y-3503333D01*
X-6781500Y-3646190D01*
X-6686261Y-3741428D01*
X-6591023Y-3789047D01*
X-6400547Y-3836666D01*
X-6257690Y-3836666D01*
X-6067214Y-3789047D01*
X-5971976Y-3741428D01*
X-5876738Y-3646190D01*
X-5829119Y-3503333D01*
X-5829119Y-3265238D01*
X-5733880Y-4027142D02*
X-5733880Y-4789047D01*
X-5876738Y-4979523D02*
X-5829119Y-5122380D01*
X-5829119Y-5360476D01*
X-5876738Y-5455714D01*
X-5924357Y-5503333D01*
X-6019595Y-5550952D01*
X-6114833Y-5550952D01*
X-6210071Y-5503333D01*
X-6257690Y-5455714D01*
X-6305309Y-5360476D01*
X-6352928Y-5170000D01*
X-6400547Y-5074761D01*
X-6448166Y-5027142D01*
X-6543404Y-4979523D01*
X-6638642Y-4979523D01*
X-6733880Y-5027142D01*
X-6781500Y-5074761D01*
X-6829119Y-5170000D01*
X-6829119Y-5408095D01*
X-6781500Y-5550952D01*
X-5829119Y-5979523D02*
X-6495785Y-5979523D01*
X-6400547Y-5979523D02*
X-6448166Y-6027142D01*
X-6495785Y-6122380D01*
X-6495785Y-6265238D01*
X-6448166Y-6360476D01*
X-6352928Y-6408095D01*
X-5829119Y-6408095D01*
X-6352928Y-6408095D02*
X-6448166Y-6455714D01*
X-6495785Y-6550952D01*
X-6495785Y-6693809D01*
X-6448166Y-6789047D01*
X-6352928Y-6836666D01*
X-5829119Y-6836666D01*
X-5829119Y-7741428D02*
X-6352928Y-7741428D01*
X-6448166Y-7693809D01*
X-6495785Y-7598571D01*
X-6495785Y-7408095D01*
X-6448166Y-7312857D01*
X-5876738Y-7741428D02*
X-5829119Y-7646190D01*
X-5829119Y-7408095D01*
X-5876738Y-7312857D01*
X-5971976Y-7265238D01*
X-6067214Y-7265238D01*
X-6162452Y-7312857D01*
X-6210071Y-7408095D01*
X-6210071Y-7646190D01*
X-6257690Y-7741428D01*
X-5829119Y-8360476D02*
X-5876738Y-8265238D01*
X-5971976Y-8217619D01*
X-6829119Y-8217619D01*
X-5829119Y-8884285D02*
X-5876738Y-8789047D01*
X-5971976Y-8741428D01*
X-6829119Y-8741428D01*
D13*
X-4405309Y-4800952D02*
X-4905309Y-4800952D01*
X-4905309Y-4920000D01*
X-4881500Y-4991428D01*
X-4833880Y-5039047D01*
X-4786261Y-5062857D01*
X-4691023Y-5086666D01*
X-4619595Y-5086666D01*
X-4524357Y-5062857D01*
X-4476738Y-5039047D01*
X-4429119Y-4991428D01*
X-4405309Y-4920000D01*
X-4405309Y-4800952D01*
X-4857690Y-5277142D02*
X-4881500Y-5300952D01*
X-4905309Y-5348571D01*
X-4905309Y-5467619D01*
X-4881500Y-5515238D01*
X-4857690Y-5539047D01*
X-4810071Y-5562857D01*
X-4762452Y-5562857D01*
X-4691023Y-5539047D01*
X-4405309Y-5253333D01*
X-4405309Y-5562857D01*
%TD*%
M02*
