%TF.GenerationSoftware,KiCad,Pcbnew,(5.1.7)-1*%
%TF.CreationDate,2020-11-20T21:44:25-06:00*%
%TF.ProjectId,PROBE-BOARD,50524f42-452d-4424-9f41-52442e6b6963,rev?*%
%TF.SameCoordinates,Original*%
%TF.FileFunction,Legend,Top*%
%TF.FilePolarity,Positive*%
%FSLAX46Y46*%
G04 Gerber Fmt 4.6, Leading zero omitted, Abs format (unit mm)*
G04 Created by KiCad (PCBNEW (5.1.7)-1) date 2020-11-20 21:44:25*
%MOMM*%
%LPD*%
G01*
G04 APERTURE LIST*
%ADD10C,0.120000*%
%ADD11C,0.150000*%
G04 APERTURE END LIST*
D10*
X-5050000Y-5450000D02*
X-4250000Y-5450000D01*
X-4650000Y-4700000D02*
X-4650000Y-5650000D01*
X-4650000Y-5350000D02*
X-5200000Y-4850000D01*
X-4050000Y-4850000D02*
X-4650000Y-5350000D01*
X-5200000Y-4850000D02*
X-4050000Y-4850000D01*
D11*
X5929285Y14501333D02*
X5119761Y14501333D01*
X5024523Y14548952D01*
X4976904Y14596571D01*
X4929285Y14691809D01*
X4929285Y14834666D01*
X4976904Y14929904D01*
X5310238Y14501333D02*
X5262619Y14596571D01*
X5262619Y14787047D01*
X5310238Y14882285D01*
X5357857Y14929904D01*
X5453095Y14977523D01*
X5738809Y14977523D01*
X5834047Y14929904D01*
X5881666Y14882285D01*
X5929285Y14787047D01*
X5929285Y14596571D01*
X5881666Y14501333D01*
X5262619Y14025142D02*
X5929285Y14025142D01*
X6262619Y14025142D02*
X6215000Y14072761D01*
X6167380Y14025142D01*
X6215000Y13977523D01*
X6262619Y14025142D01*
X6167380Y14025142D01*
X5929285Y13691809D02*
X5929285Y13310857D01*
X6262619Y13548952D02*
X5405476Y13548952D01*
X5310238Y13501333D01*
X5262619Y13406095D01*
X5262619Y13310857D01*
X5357857Y12977523D02*
X5310238Y12929904D01*
X5262619Y12977523D01*
X5310238Y13025142D01*
X5357857Y12977523D01*
X5262619Y12977523D01*
X5262619Y12501333D02*
X5929285Y12501333D01*
X6262619Y12501333D02*
X6215000Y12548952D01*
X6167380Y12501333D01*
X6215000Y12453714D01*
X6262619Y12501333D01*
X6167380Y12501333D01*
X5262619Y11882285D02*
X5310238Y11977523D01*
X5357857Y12025142D01*
X5453095Y12072761D01*
X5738809Y12072761D01*
X5834047Y12025142D01*
X5881666Y11977523D01*
X5929285Y11882285D01*
X5929285Y11739428D01*
X5881666Y11644190D01*
X5834047Y11596571D01*
X5738809Y11548952D01*
X5453095Y11548952D01*
X5357857Y11596571D01*
X5310238Y11644190D01*
X5262619Y11739428D01*
X5262619Y11882285D01*
X6310238Y10406095D02*
X5024523Y11263238D01*
X6262619Y9787047D02*
X5548333Y9787047D01*
X5405476Y9834666D01*
X5310238Y9929904D01*
X5262619Y10072761D01*
X5262619Y10168000D01*
X5262619Y9310857D02*
X6262619Y9310857D01*
X5643571Y9215619D02*
X5262619Y8929904D01*
X5929285Y8929904D02*
X5548333Y9310857D01*
X5929285Y8596571D02*
X5929285Y8072761D01*
X5262619Y8596571D01*
X5262619Y8072761D01*
X6262619Y7787047D02*
X6262619Y7120380D01*
X5262619Y7787047D01*
X5262619Y7120380D01*
X5262619Y6263238D02*
X5262619Y6739428D01*
X6262619Y6739428D01*
X-4119047Y797619D02*
X-4690476Y797619D01*
X-4404761Y797619D02*
X-4404761Y1797619D01*
X-4500000Y1654761D01*
X-4595238Y1559523D01*
X-4690476Y1511904D01*
X-3690476Y797619D02*
X-3690476Y1797619D01*
X-3595238Y1178571D02*
X-3309523Y797619D01*
X-3309523Y1464285D02*
X-3690476Y1083333D01*
X-2532000Y-5206904D02*
X-2579619Y-5302142D01*
X-2579619Y-5445000D01*
X-2532000Y-5587857D01*
X-2436761Y-5683095D01*
X-2341523Y-5730714D01*
X-2151047Y-5778333D01*
X-2008190Y-5778333D01*
X-1817714Y-5730714D01*
X-1722476Y-5683095D01*
X-1627238Y-5587857D01*
X-1579619Y-5445000D01*
X-1579619Y-5349761D01*
X-1627238Y-5206904D01*
X-1674857Y-5159285D01*
X-2008190Y-5159285D01*
X-2008190Y-5349761D01*
X-1579619Y-4730714D02*
X-2579619Y-4730714D01*
X-1579619Y-4159285D01*
X-2579619Y-4159285D01*
X-1579619Y-3683095D02*
X-2579619Y-3683095D01*
X-2579619Y-3445000D01*
X-2532000Y-3302142D01*
X-2436761Y-3206904D01*
X-2341523Y-3159285D01*
X-2151047Y-3111666D01*
X-2008190Y-3111666D01*
X-1817714Y-3159285D01*
X-1722476Y-3206904D01*
X-1627238Y-3302142D01*
X-1579619Y-3445000D01*
X-1579619Y-3683095D01*
X2436761Y-3595333D02*
X2484380Y-3452476D01*
X2484380Y-3214380D01*
X2436761Y-3119142D01*
X2389142Y-3071523D01*
X2293904Y-3023904D01*
X2198666Y-3023904D01*
X2103428Y-3071523D01*
X2055809Y-3119142D01*
X2008190Y-3214380D01*
X1960571Y-3404857D01*
X1912952Y-3500095D01*
X1865333Y-3547714D01*
X1770095Y-3595333D01*
X1674857Y-3595333D01*
X1579619Y-3547714D01*
X1531999Y-3500095D01*
X1484380Y-3404857D01*
X1484380Y-3166761D01*
X1532000Y-3023904D01*
X2484380Y-2595333D02*
X1484380Y-2595333D01*
X1532000Y-1595333D02*
X1484380Y-1690571D01*
X1484380Y-1833428D01*
X1532000Y-1976285D01*
X1627238Y-2071523D01*
X1722476Y-2119142D01*
X1912952Y-2166761D01*
X2055809Y-2166761D01*
X2246285Y-2119142D01*
X2341523Y-2071523D01*
X2436761Y-1976285D01*
X2484380Y-1833428D01*
X2484380Y-1738190D01*
X2436761Y-1595333D01*
X2389142Y-1547714D01*
X2055809Y-1547714D01*
X2055809Y-1738190D01*
X1484380Y-500095D02*
X2484380Y-166761D01*
X1484380Y166571D01*
X2389142Y1071333D02*
X2436761Y1023714D01*
X2484380Y880857D01*
X2484380Y785619D01*
X2436761Y642761D01*
X2341523Y547523D01*
X2246285Y499904D01*
X2055809Y452285D01*
X1912952Y452285D01*
X1722476Y499904D01*
X1627238Y547523D01*
X1532000Y642761D01*
X1484380Y785619D01*
X1484380Y880857D01*
X1532000Y1023714D01*
X1579619Y1071333D01*
X2389142Y2071333D02*
X2436761Y2023714D01*
X2484380Y1880857D01*
X2484380Y1785619D01*
X2436761Y1642761D01*
X2341523Y1547523D01*
X2246285Y1499904D01*
X2055809Y1452285D01*
X1912952Y1452285D01*
X1722476Y1499904D01*
X1627238Y1547523D01*
X1532000Y1642761D01*
X1484380Y1785619D01*
X1484380Y1880857D01*
X1532000Y2023714D01*
X1579619Y2071333D01*
X2436761Y3802190D02*
X2484380Y3945047D01*
X2484380Y4183142D01*
X2436761Y4278380D01*
X2389142Y4326000D01*
X2293904Y4373619D01*
X2198666Y4373619D01*
X2103428Y4326000D01*
X2055809Y4278380D01*
X2008190Y4183142D01*
X1960571Y3992666D01*
X1912952Y3897428D01*
X1865333Y3849809D01*
X1770095Y3802190D01*
X1674857Y3802190D01*
X1579619Y3849809D01*
X1532000Y3897428D01*
X1484380Y3992666D01*
X1484380Y4230761D01*
X1532000Y4373619D01*
X2484380Y4802190D02*
X1484380Y4802190D01*
X1532000Y5802190D02*
X1484380Y5706952D01*
X1484380Y5564095D01*
X1532000Y5421238D01*
X1627238Y5326000D01*
X1722476Y5278380D01*
X1912952Y5230761D01*
X2055809Y5230761D01*
X2246285Y5278380D01*
X2341523Y5326000D01*
X2436761Y5421238D01*
X2484380Y5564095D01*
X2484380Y5659333D01*
X2436761Y5802190D01*
X2389142Y5849809D01*
X2055809Y5849809D01*
X2055809Y5659333D01*
D10*
%TO.C,R1*%
X-4225936Y-1625000D02*
X-5680064Y-1625000D01*
X-4225936Y195000D02*
X-5680064Y195000D01*
%TO.C,D1*%
X-3496500Y-7693500D02*
X-3496500Y-3633500D01*
X-5766500Y-7693500D02*
X-3496500Y-7693500D01*
X-5766500Y-3633500D02*
X-5766500Y-7693500D01*
%TO.C,SW1*%
X2940000Y6350000D02*
X-2940000Y6350000D01*
X-2940000Y6350000D02*
X-2940000Y-6350000D01*
X-2940000Y-6350000D02*
X2940000Y-6350000D01*
X2940000Y-6350000D02*
X2940000Y6350000D01*
%TO.C,R1*%
D11*
X-6166666Y797619D02*
X-6500000Y1273809D01*
X-6738095Y797619D02*
X-6738095Y1797619D01*
X-6357142Y1797619D01*
X-6261904Y1750000D01*
X-6214285Y1702380D01*
X-6166666Y1607142D01*
X-6166666Y1464285D01*
X-6214285Y1369047D01*
X-6261904Y1321428D01*
X-6357142Y1273809D01*
X-6738095Y1273809D01*
X-5214285Y797619D02*
X-5785714Y797619D01*
X-5500000Y797619D02*
X-5500000Y1797619D01*
X-5595238Y1654761D01*
X-5690476Y1559523D01*
X-5785714Y1511904D01*
%TO.C,D1*%
X-4297619Y-9488095D02*
X-5297619Y-9488095D01*
X-5297619Y-9250000D01*
X-5250000Y-9107142D01*
X-5154761Y-9011904D01*
X-5059523Y-8964285D01*
X-4869047Y-8916666D01*
X-4726190Y-8916666D01*
X-4535714Y-8964285D01*
X-4440476Y-9011904D01*
X-4345238Y-9107142D01*
X-4297619Y-9250000D01*
X-4297619Y-9488095D01*
X-4297619Y-7964285D02*
X-4297619Y-8535714D01*
X-4297619Y-8250000D02*
X-5297619Y-8250000D01*
X-5154761Y-8345238D01*
X-5059523Y-8440476D01*
X-5011904Y-8535714D01*
%TO.C,J2*%
X4366666Y-6302380D02*
X4366666Y-7016666D01*
X4319047Y-7159523D01*
X4223809Y-7254761D01*
X4080952Y-7302380D01*
X3985714Y-7302380D01*
X4795238Y-6397619D02*
X4842857Y-6350000D01*
X4938095Y-6302380D01*
X5176190Y-6302380D01*
X5271428Y-6350000D01*
X5319047Y-6397619D01*
X5366666Y-6492857D01*
X5366666Y-6588095D01*
X5319047Y-6730952D01*
X4747619Y-7302380D01*
X5366666Y-7302380D01*
%TO.C,J1*%
X-4283333Y14747619D02*
X-4283333Y14033333D01*
X-4330952Y13890476D01*
X-4426190Y13795238D01*
X-4569047Y13747619D01*
X-4664285Y13747619D01*
X-3283333Y13747619D02*
X-3854761Y13747619D01*
X-3569047Y13747619D02*
X-3569047Y14747619D01*
X-3664285Y14604761D01*
X-3759523Y14509523D01*
X-3854761Y14461904D01*
%TD*%
M02*
