%TF.GenerationSoftware,KiCad,Pcbnew,(5.1.7)-1*%
%TF.CreationDate,2020-11-20T21:44:25-06:00*%
%TF.ProjectId,PROBE-BOARD,50524f42-452d-4424-9f41-52442e6b6963,rev?*%
%TF.SameCoordinates,Original*%
%TF.FileFunction,Copper,L1,Top*%
%TF.FilePolarity,Positive*%
%FSLAX46Y46*%
G04 Gerber Fmt 4.6, Leading zero omitted, Abs format (unit mm)*
G04 Created by KiCad (PCBNEW (5.1.7)-1) date 2020-11-20 21:44:25*
%MOMM*%
%LPD*%
G01*
G04 APERTURE LIST*
%TA.AperFunction,ComponentPad*%
%ADD10C,1.800000*%
%TD*%
%TA.AperFunction,ComponentPad*%
%ADD11C,2.250000*%
%TD*%
%TA.AperFunction,ComponentPad*%
%ADD12C,8.100000*%
%TD*%
%TA.AperFunction,ViaPad*%
%ADD13C,0.800000*%
%TD*%
%TA.AperFunction,Conductor*%
%ADD14C,0.500000*%
%TD*%
%TA.AperFunction,Conductor*%
%ADD15C,1.500000*%
%TD*%
G04 APERTURE END LIST*
%TO.P,R1,2*%
%TO.N,Net-(D1-Pad2)*%
%TA.AperFunction,SMDPad,CuDef*%
G36*
G01*
X-5853000Y-89999D02*
X-5853000Y-1340001D01*
G75*
G02*
X-6102999Y-1590000I-249999J0D01*
G01*
X-6903001Y-1590000D01*
G75*
G02*
X-7153000Y-1340001I0J249999D01*
G01*
X-7153000Y-89999D01*
G75*
G02*
X-6903001Y160000I249999J0D01*
G01*
X-6102999Y160000D01*
G75*
G02*
X-5853000Y-89999I0J-249999D01*
G01*
G37*
%TD.AperFunction*%
%TO.P,R1,1*%
%TO.N,VCC*%
%TA.AperFunction,SMDPad,CuDef*%
G36*
G01*
X-2753000Y-89999D02*
X-2753000Y-1340001D01*
G75*
G02*
X-3002999Y-1590000I-249999J0D01*
G01*
X-3803001Y-1590000D01*
G75*
G02*
X-4053000Y-1340001I0J249999D01*
G01*
X-4053000Y-89999D01*
G75*
G02*
X-3803001Y160000I249999J0D01*
G01*
X-3002999Y160000D01*
G75*
G02*
X-2753000Y-89999I0J-249999D01*
G01*
G37*
%TD.AperFunction*%
%TD*%
%TO.P,D1,2*%
%TO.N,Net-(D1-Pad2)*%
%TA.AperFunction,SMDPad,CuDef*%
G36*
G01*
X-4006500Y-4458500D02*
X-5256500Y-4458500D01*
G75*
G02*
X-5506500Y-4208500I0J250000D01*
G01*
X-5506500Y-3283500D01*
G75*
G02*
X-5256500Y-3033500I250000J0D01*
G01*
X-4006500Y-3033500D01*
G75*
G02*
X-3756500Y-3283500I0J-250000D01*
G01*
X-3756500Y-4208500D01*
G75*
G02*
X-4006500Y-4458500I-250000J0D01*
G01*
G37*
%TD.AperFunction*%
%TO.P,D1,1*%
%TO.N,SIGNAL*%
%TA.AperFunction,SMDPad,CuDef*%
G36*
G01*
X-4006500Y-7433500D02*
X-5256500Y-7433500D01*
G75*
G02*
X-5506500Y-7183500I0J250000D01*
G01*
X-5506500Y-6258500D01*
G75*
G02*
X-5256500Y-6008500I250000J0D01*
G01*
X-4006500Y-6008500D01*
G75*
G02*
X-3756500Y-6258500I0J-250000D01*
G01*
X-3756500Y-7183500D01*
G75*
G02*
X-4006500Y-7433500I-250000J0D01*
G01*
G37*
%TD.AperFunction*%
%TD*%
D10*
%TO.P,SW1,4*%
%TO.N,SIGNAL*%
X0Y-2540000D03*
D11*
%TO.P,SW1,3*%
%TO.N,VCC*%
X0Y0D03*
%TO.P,SW1,2*%
%TO.N,SIGNAL*%
X0Y5080000D03*
%TO.P,SW1,1*%
%TO.N,GND*%
X0Y-5080000D03*
%TD*%
D12*
%TO.P,J2,1*%
%TO.N,GND*%
X0Y-10750000D03*
%TD*%
%TO.P,J1,1*%
%TO.N,SIGNAL*%
X0Y10750000D03*
%TD*%
D13*
%TO.N,GND*%
X-2222500Y-7810500D03*
%TO.N,SIGNAL*%
X1700000Y7650000D03*
%TD*%
D14*
%TO.N,VCC*%
X0Y0D02*
X-87000Y0D01*
X-2700000Y50000D02*
X0Y0D01*
X-2700000Y-12000D02*
X-3403000Y-715000D01*
X-2700000Y50000D02*
X-2700000Y-12000D01*
D15*
%TO.N,GND*%
X0Y-5080000D02*
X0Y-10750000D01*
%TO.N,SIGNAL*%
X0Y10750000D02*
X0Y5080000D01*
D14*
X0Y5080000D02*
X762000Y5080000D01*
X-508000Y4572000D02*
X0Y5080000D01*
X0Y5080000D02*
X0Y4318000D01*
X1651000Y-1016000D02*
X0Y-2540000D01*
X1587500Y1143000D02*
X1651000Y-1016000D01*
X0Y2603500D02*
X1587500Y1143000D01*
X0Y5080000D02*
X0Y2603500D01*
X0Y-2589500D02*
X-4631500Y-7221000D01*
X0Y-2540000D02*
X0Y-2589500D01*
%TO.N,Net-(D1-Pad2)*%
X-4631500Y-3746000D02*
X-4631500Y-4246000D01*
X-5900000Y-2400000D02*
X-4631500Y-3746000D01*
X-6500000Y-1800000D02*
X-5900000Y-2400000D01*
X-6500000Y-718000D02*
X-6503000Y-715000D01*
X-6500000Y-1800000D02*
X-6500000Y-718000D01*
%TD*%
M02*
