%TF.GenerationSoftware,KiCad,Pcbnew,(5.1.7)-1*%
%TF.CreationDate,2020-11-20T21:44:25-06:00*%
%TF.ProjectId,PROBE-BOARD,50524f42-452d-4424-9f41-52442e6b6963,rev?*%
%TF.SameCoordinates,Original*%
%TF.FileFunction,Legend,Bot*%
%TF.FilePolarity,Positive*%
%FSLAX46Y46*%
G04 Gerber Fmt 4.6, Leading zero omitted, Abs format (unit mm)*
G04 Created by KiCad (PCBNEW (5.1.7)-1) date 2020-11-20 21:44:25*
%MOMM*%
%LPD*%
G01*
G04 APERTURE LIST*
%ADD10C,0.120000*%
%ADD11C,0.150000*%
G04 APERTURE END LIST*
D10*
X-4050000Y-4850000D02*
X-4650000Y-5450000D01*
X-5200000Y-4850000D02*
X-4050000Y-4850000D01*
X-4650000Y-5450000D02*
X-5200000Y-4850000D01*
X-5050000Y-5450000D02*
X-4250000Y-5450000D01*
X-4650000Y-4650000D02*
X-4650000Y-5650000D01*
D11*
X5373714Y14691833D02*
X6183238Y14691833D01*
X6278476Y14739452D01*
X6326095Y14787071D01*
X6373714Y14882309D01*
X6373714Y15025166D01*
X6326095Y15120404D01*
X5992761Y14691833D02*
X6040380Y14787071D01*
X6040380Y14977547D01*
X5992761Y15072785D01*
X5945142Y15120404D01*
X5849904Y15168023D01*
X5564190Y15168023D01*
X5468952Y15120404D01*
X5421333Y15072785D01*
X5373714Y14977547D01*
X5373714Y14787071D01*
X5421333Y14691833D01*
X6040380Y14215642D02*
X5373714Y14215642D01*
X5040380Y14215642D02*
X5088000Y14263261D01*
X5135619Y14215642D01*
X5088000Y14168023D01*
X5040380Y14215642D01*
X5135619Y14215642D01*
X5373714Y13882309D02*
X5373714Y13501357D01*
X5040380Y13739452D02*
X5897523Y13739452D01*
X5992761Y13691833D01*
X6040380Y13596595D01*
X6040380Y13501357D01*
X5945142Y13168023D02*
X5992761Y13120404D01*
X6040380Y13168023D01*
X5992761Y13215642D01*
X5945142Y13168023D01*
X6040380Y13168023D01*
X6040380Y12691833D02*
X5373714Y12691833D01*
X5040380Y12691833D02*
X5088000Y12739452D01*
X5135619Y12691833D01*
X5088000Y12644214D01*
X5040380Y12691833D01*
X5135619Y12691833D01*
X6040380Y12072785D02*
X5992761Y12168023D01*
X5945142Y12215642D01*
X5849904Y12263261D01*
X5564190Y12263261D01*
X5468952Y12215642D01*
X5421333Y12168023D01*
X5373714Y12072785D01*
X5373714Y11929928D01*
X5421333Y11834690D01*
X5468952Y11787071D01*
X5564190Y11739452D01*
X5849904Y11739452D01*
X5945142Y11787071D01*
X5992761Y11834690D01*
X6040380Y11929928D01*
X6040380Y12072785D01*
X4992761Y10596595D02*
X6278476Y11453738D01*
X5040380Y9977547D02*
X5754666Y9977547D01*
X5897523Y10025166D01*
X5992761Y10120404D01*
X6040380Y10263261D01*
X6040380Y10358500D01*
X6040380Y9501357D02*
X5040380Y9501357D01*
X5659428Y9406119D02*
X6040380Y9120404D01*
X5373714Y9120404D02*
X5754666Y9501357D01*
X5373714Y8787071D02*
X5373714Y8263261D01*
X6040380Y8787071D01*
X6040380Y8263261D01*
X5040380Y7977547D02*
X5040380Y7310880D01*
X6040380Y7977547D01*
X6040380Y7310880D01*
X6040380Y6453738D02*
X6040380Y6929928D01*
X5040380Y6929928D01*
X-6130952Y547619D02*
X-5559523Y547619D01*
X-5845238Y547619D02*
X-5845238Y1547619D01*
X-5750000Y1404761D01*
X-5654761Y1309523D01*
X-5559523Y1261904D01*
X-6559523Y547619D02*
X-6559523Y1547619D01*
X-6654761Y928571D02*
X-6940476Y547619D01*
X-6940476Y1214285D02*
X-6559523Y833333D01*
X-1627238Y6103809D02*
X-1579619Y5960952D01*
X-1579619Y5722857D01*
X-1627238Y5627619D01*
X-1674857Y5580000D01*
X-1770095Y5532380D01*
X-1865333Y5532380D01*
X-1960571Y5580000D01*
X-2008190Y5627619D01*
X-2055809Y5722857D01*
X-2103428Y5913333D01*
X-2151047Y6008571D01*
X-2198666Y6056190D01*
X-2293904Y6103809D01*
X-2389142Y6103809D01*
X-2484380Y6056190D01*
X-2532000Y6008571D01*
X-2579619Y5913333D01*
X-2579619Y5675238D01*
X-2532000Y5532380D01*
X-1579619Y5103809D02*
X-2579619Y5103809D01*
X-2532000Y4103809D02*
X-2579619Y4199047D01*
X-2579619Y4341904D01*
X-2532000Y4484761D01*
X-2436761Y4580000D01*
X-2341523Y4627619D01*
X-2151047Y4675238D01*
X-2008190Y4675238D01*
X-1817714Y4627619D01*
X-1722476Y4580000D01*
X-1627238Y4484761D01*
X-1579619Y4341904D01*
X-1579619Y4246666D01*
X-1627238Y4103809D01*
X-1674857Y4056190D01*
X-2008190Y4056190D01*
X-2008190Y4246666D01*
X-2579619Y1841333D02*
X-1579619Y1508000D01*
X-2579619Y1174666D01*
X-1674857Y269904D02*
X-1627238Y317523D01*
X-1579619Y460380D01*
X-1579619Y555619D01*
X-1627238Y698476D01*
X-1722476Y793714D01*
X-1817714Y841333D01*
X-2008190Y888952D01*
X-2151047Y888952D01*
X-2341523Y841333D01*
X-2436761Y793714D01*
X-2532000Y698476D01*
X-2579619Y555619D01*
X-2579619Y460380D01*
X-2532000Y317523D01*
X-2484380Y269904D01*
X-1674857Y-730095D02*
X-1627238Y-682476D01*
X-1579619Y-539619D01*
X-1579619Y-444380D01*
X-1627238Y-301523D01*
X-1722476Y-206285D01*
X-1817714Y-158666D01*
X-2008190Y-111047D01*
X-2151047Y-111047D01*
X-2341523Y-158666D01*
X-2436761Y-206285D01*
X-2532000Y-301523D01*
X-2579619Y-444380D01*
X-2579619Y-539619D01*
X-2532000Y-682476D01*
X-2484380Y-730095D01*
X-1627238Y-1770190D02*
X-1579619Y-1913047D01*
X-1579619Y-2151142D01*
X-1627238Y-2246380D01*
X-1674857Y-2294000D01*
X-1770095Y-2341619D01*
X-1865333Y-2341619D01*
X-1960571Y-2294000D01*
X-2008190Y-2246380D01*
X-2055809Y-2151142D01*
X-2103428Y-1960666D01*
X-2151047Y-1865428D01*
X-2198666Y-1817809D01*
X-2293904Y-1770190D01*
X-2389142Y-1770190D01*
X-2484380Y-1817809D01*
X-2532000Y-1865428D01*
X-2579619Y-1960666D01*
X-2579619Y-2198761D01*
X-2532000Y-2341619D01*
X-1579619Y-2770190D02*
X-2579619Y-2770190D01*
X-2532000Y-3770190D02*
X-2579619Y-3674952D01*
X-2579619Y-3532095D01*
X-2532000Y-3389238D01*
X-2436761Y-3294000D01*
X-2341523Y-3246380D01*
X-2151047Y-3198761D01*
X-2008190Y-3198761D01*
X-1817714Y-3246380D01*
X-1722476Y-3294000D01*
X-1627238Y-3389238D01*
X-1579619Y-3532095D01*
X-1579619Y-3627333D01*
X-1627238Y-3770190D01*
X-1674857Y-3817809D01*
X-2008190Y-3817809D01*
X-2008190Y-3627333D01*
X1532000Y-4064095D02*
X1484380Y-3968857D01*
X1484380Y-3826000D01*
X1532000Y-3683142D01*
X1627238Y-3587904D01*
X1722476Y-3540285D01*
X1912952Y-3492666D01*
X2055809Y-3492666D01*
X2246285Y-3540285D01*
X2341523Y-3587904D01*
X2436761Y-3683142D01*
X2484380Y-3826000D01*
X2484380Y-3921238D01*
X2436761Y-4064095D01*
X2389142Y-4111714D01*
X2055809Y-4111714D01*
X2055809Y-3921238D01*
X2484380Y-4540285D02*
X1484380Y-4540285D01*
X2484380Y-5111714D01*
X1484380Y-5111714D01*
X2484380Y-5587904D02*
X1484380Y-5587904D01*
X1484380Y-5826000D01*
X1532000Y-5968857D01*
X1627238Y-6064095D01*
X1722476Y-6111714D01*
X1912952Y-6159333D01*
X2055809Y-6159333D01*
X2246285Y-6111714D01*
X2341523Y-6064095D01*
X2436761Y-5968857D01*
X2484380Y-5826000D01*
X2484380Y-5587904D01*
X4933333Y-6302380D02*
X4933333Y-7016666D01*
X4980952Y-7159523D01*
X5076190Y-7254761D01*
X5219047Y-7302380D01*
X5314285Y-7302380D01*
X4504761Y-6397619D02*
X4457142Y-6350000D01*
X4361904Y-6302380D01*
X4123809Y-6302380D01*
X4028571Y-6350000D01*
X3980952Y-6397619D01*
X3933333Y-6492857D01*
X3933333Y-6588095D01*
X3980952Y-6730952D01*
X4552380Y-7302380D01*
X3933333Y-7302380D01*
X-3540166Y14747619D02*
X-3540166Y14033333D01*
X-3492547Y13890476D01*
X-3397309Y13795238D01*
X-3254452Y13747619D01*
X-3159214Y13747619D01*
X-4540166Y13747619D02*
X-3968738Y13747619D01*
X-4254452Y13747619D02*
X-4254452Y14747619D01*
X-4159214Y14604761D01*
X-4063976Y14509523D01*
X-3968738Y14461904D01*
D10*
X-3048000Y-6350000D02*
X-3048000Y6350000D01*
X3048000Y-6350000D02*
X-3048000Y-6350000D01*
X3048000Y6350000D02*
X3048000Y-6350000D01*
X-3048000Y6350000D02*
X3048000Y6350000D01*
%TO.C,R2*%
X-4225936Y211500D02*
X-5680064Y211500D01*
X-4225936Y-1608500D02*
X-5680064Y-1608500D01*
%TO.C,D2*%
X-5766500Y-7630000D02*
X-5766500Y-3570000D01*
X-3496500Y-7630000D02*
X-5766500Y-7630000D01*
X-3496500Y-3570000D02*
X-3496500Y-7630000D01*
%TO.C,R2*%
D11*
X-4083333Y547619D02*
X-3749999Y1023809D01*
X-3511904Y547619D02*
X-3511904Y1547619D01*
X-3892857Y1547619D01*
X-3988095Y1500000D01*
X-4035714Y1452380D01*
X-4083333Y1357142D01*
X-4083333Y1214285D01*
X-4035714Y1119047D01*
X-3988095Y1071428D01*
X-3892857Y1023809D01*
X-3511904Y1023809D01*
X-4464285Y1452380D02*
X-4511904Y1500000D01*
X-4607142Y1547619D01*
X-4845238Y1547619D01*
X-4940476Y1500000D01*
X-4988095Y1452380D01*
X-5035714Y1357142D01*
X-5035714Y1261904D01*
X-4988095Y1119047D01*
X-4416666Y547619D01*
X-5035714Y547619D01*
%TO.C,D2*%
X-4297619Y-8011904D02*
X-5297619Y-8011904D01*
X-5297619Y-8250000D01*
X-5250000Y-8392857D01*
X-5154761Y-8488095D01*
X-5059523Y-8535714D01*
X-4869047Y-8583333D01*
X-4726190Y-8583333D01*
X-4535714Y-8535714D01*
X-4440476Y-8488095D01*
X-4345238Y-8392857D01*
X-4297619Y-8250000D01*
X-4297619Y-8011904D01*
X-5202380Y-8964285D02*
X-5250000Y-9011904D01*
X-5297619Y-9107142D01*
X-5297619Y-9345238D01*
X-5250000Y-9440476D01*
X-5202380Y-9488095D01*
X-5107142Y-9535714D01*
X-5011904Y-9535714D01*
X-4869047Y-9488095D01*
X-4297619Y-8916666D01*
X-4297619Y-9535714D01*
%TO.C,SW1*%
X4404761Y-2916666D02*
X4452380Y-3059523D01*
X4452380Y-3297619D01*
X4404761Y-3392857D01*
X4357142Y-3440476D01*
X4261904Y-3488095D01*
X4166666Y-3488095D01*
X4071428Y-3440476D01*
X4023809Y-3392857D01*
X3976190Y-3297619D01*
X3928571Y-3107142D01*
X3880952Y-3011904D01*
X3833333Y-2964285D01*
X3738095Y-2916666D01*
X3642857Y-2916666D01*
X3547619Y-2964285D01*
X3500000Y-3011904D01*
X3452380Y-3107142D01*
X3452380Y-3345238D01*
X3500000Y-3488095D01*
X3452380Y-3821428D02*
X4452380Y-4059523D01*
X3738095Y-4250000D01*
X4452380Y-4440476D01*
X3452380Y-4678571D01*
X4452380Y-5583333D02*
X4452380Y-5011904D01*
X4452380Y-5297619D02*
X3452380Y-5297619D01*
X3595238Y-5202380D01*
X3690476Y-5107142D01*
X3738095Y-5011904D01*
%TD*%
M02*
