%TF.GenerationSoftware,KiCad,Pcbnew,(5.1.7)-1*%
%TF.CreationDate,2020-11-20T16:51:11-06:00*%
%TF.ProjectId,PROBE-BOARD,50524f42-452d-4424-9f41-52442e6b6963,rev?*%
%TF.SameCoordinates,Original*%
%TF.FileFunction,Legend,Top*%
%TF.FilePolarity,Positive*%
%FSLAX46Y46*%
G04 Gerber Fmt 4.6, Leading zero omitted, Abs format (unit mm)*
G04 Created by KiCad (PCBNEW (5.1.7)-1) date 2020-11-20 16:51:11*
%MOMM*%
%LPD*%
G01*
G04 APERTURE LIST*
%ADD10C,0.150000*%
%ADD11C,0.120000*%
G04 APERTURE END LIST*
D10*
X5500714Y-13993333D02*
X6310238Y-13993333D01*
X6405476Y-14040952D01*
X6453095Y-14088571D01*
X6500714Y-14183809D01*
X6500714Y-14326666D01*
X6453095Y-14421904D01*
X6119761Y-13993333D02*
X6167380Y-14088571D01*
X6167380Y-14279047D01*
X6119761Y-14374285D01*
X6072142Y-14421904D01*
X5976904Y-14469523D01*
X5691190Y-14469523D01*
X5595952Y-14421904D01*
X5548333Y-14374285D01*
X5500714Y-14279047D01*
X5500714Y-14088571D01*
X5548333Y-13993333D01*
X6167380Y-13517142D02*
X5500714Y-13517142D01*
X5167380Y-13517142D02*
X5215000Y-13564761D01*
X5262619Y-13517142D01*
X5215000Y-13469523D01*
X5167380Y-13517142D01*
X5262619Y-13517142D01*
X5500714Y-13183809D02*
X5500714Y-12802857D01*
X5167380Y-13040952D02*
X6024523Y-13040952D01*
X6119761Y-12993333D01*
X6167380Y-12898095D01*
X6167380Y-12802857D01*
X6072142Y-12469523D02*
X6119761Y-12421904D01*
X6167380Y-12469523D01*
X6119761Y-12517142D01*
X6072142Y-12469523D01*
X6167380Y-12469523D01*
X6167380Y-11993333D02*
X5500714Y-11993333D01*
X5167380Y-11993333D02*
X5215000Y-12040952D01*
X5262619Y-11993333D01*
X5215000Y-11945714D01*
X5167380Y-11993333D01*
X5262619Y-11993333D01*
X6167380Y-11374285D02*
X6119761Y-11469523D01*
X6072142Y-11517142D01*
X5976904Y-11564761D01*
X5691190Y-11564761D01*
X5595952Y-11517142D01*
X5548333Y-11469523D01*
X5500714Y-11374285D01*
X5500714Y-11231428D01*
X5548333Y-11136190D01*
X5595952Y-11088571D01*
X5691190Y-11040952D01*
X5976904Y-11040952D01*
X6072142Y-11088571D01*
X6119761Y-11136190D01*
X6167380Y-11231428D01*
X6167380Y-11374285D01*
X5119761Y-9898095D02*
X6405476Y-10755238D01*
X5167380Y-9279047D02*
X5881666Y-9279047D01*
X6024523Y-9326666D01*
X6119761Y-9421904D01*
X6167380Y-9564761D01*
X6167380Y-9660000D01*
X6167380Y-8802857D02*
X5167380Y-8802857D01*
X5786428Y-8707619D02*
X6167380Y-8421904D01*
X5500714Y-8421904D02*
X5881666Y-8802857D01*
X5500714Y-8088571D02*
X5500714Y-7564761D01*
X6167380Y-8088571D01*
X6167380Y-7564761D01*
X5167380Y-7279047D02*
X5167380Y-6612380D01*
X6167380Y-7279047D01*
X6167380Y-6612380D01*
X6167380Y-5755238D02*
X6167380Y-6231428D01*
X5167380Y-6231428D01*
X-4691047Y1452619D02*
X-5262476Y1452619D01*
X-4976761Y1452619D02*
X-4976761Y2452619D01*
X-5072000Y2309761D01*
X-5167238Y2214523D01*
X-5262476Y2166904D01*
X-4262476Y1452619D02*
X-4262476Y2452619D01*
X-4167238Y1833571D02*
X-3881523Y1452619D01*
X-3881523Y2119285D02*
X-4262476Y1738333D01*
X-2532000Y-5206904D02*
X-2579619Y-5302142D01*
X-2579619Y-5445000D01*
X-2532000Y-5587857D01*
X-2436761Y-5683095D01*
X-2341523Y-5730714D01*
X-2151047Y-5778333D01*
X-2008190Y-5778333D01*
X-1817714Y-5730714D01*
X-1722476Y-5683095D01*
X-1627238Y-5587857D01*
X-1579619Y-5445000D01*
X-1579619Y-5349761D01*
X-1627238Y-5206904D01*
X-1674857Y-5159285D01*
X-2008190Y-5159285D01*
X-2008190Y-5349761D01*
X-1579619Y-4730714D02*
X-2579619Y-4730714D01*
X-1579619Y-4159285D01*
X-2579619Y-4159285D01*
X-1579619Y-3683095D02*
X-2579619Y-3683095D01*
X-2579619Y-3445000D01*
X-2532000Y-3302142D01*
X-2436761Y-3206904D01*
X-2341523Y-3159285D01*
X-2151047Y-3111666D01*
X-2008190Y-3111666D01*
X-1817714Y-3159285D01*
X-1722476Y-3206904D01*
X-1627238Y-3302142D01*
X-1579619Y-3445000D01*
X-1579619Y-3683095D01*
X2436761Y-3595333D02*
X2484380Y-3452476D01*
X2484380Y-3214380D01*
X2436761Y-3119142D01*
X2389142Y-3071523D01*
X2293904Y-3023904D01*
X2198666Y-3023904D01*
X2103428Y-3071523D01*
X2055809Y-3119142D01*
X2008190Y-3214380D01*
X1960571Y-3404857D01*
X1912952Y-3500095D01*
X1865333Y-3547714D01*
X1770095Y-3595333D01*
X1674857Y-3595333D01*
X1579619Y-3547714D01*
X1531999Y-3500095D01*
X1484380Y-3404857D01*
X1484380Y-3166761D01*
X1532000Y-3023904D01*
X2484380Y-2595333D02*
X1484380Y-2595333D01*
X1532000Y-1595333D02*
X1484380Y-1690571D01*
X1484380Y-1833428D01*
X1532000Y-1976285D01*
X1627238Y-2071523D01*
X1722476Y-2119142D01*
X1912952Y-2166761D01*
X2055809Y-2166761D01*
X2246285Y-2119142D01*
X2341523Y-2071523D01*
X2436761Y-1976285D01*
X2484380Y-1833428D01*
X2484380Y-1738190D01*
X2436761Y-1595333D01*
X2389142Y-1547714D01*
X2055809Y-1547714D01*
X2055809Y-1738190D01*
X1484380Y-500095D02*
X2484380Y-166761D01*
X1484380Y166571D01*
X2389142Y1071333D02*
X2436761Y1023714D01*
X2484380Y880857D01*
X2484380Y785619D01*
X2436761Y642761D01*
X2341523Y547523D01*
X2246285Y499904D01*
X2055809Y452285D01*
X1912952Y452285D01*
X1722476Y499904D01*
X1627238Y547523D01*
X1532000Y642761D01*
X1484380Y785619D01*
X1484380Y880857D01*
X1532000Y1023714D01*
X1579619Y1071333D01*
X2389142Y2071333D02*
X2436761Y2023714D01*
X2484380Y1880857D01*
X2484380Y1785619D01*
X2436761Y1642761D01*
X2341523Y1547523D01*
X2246285Y1499904D01*
X2055809Y1452285D01*
X1912952Y1452285D01*
X1722476Y1499904D01*
X1627238Y1547523D01*
X1532000Y1642761D01*
X1484380Y1785619D01*
X1484380Y1880857D01*
X1532000Y2023714D01*
X1579619Y2071333D01*
X2436761Y3802190D02*
X2484380Y3945047D01*
X2484380Y4183142D01*
X2436761Y4278380D01*
X2389142Y4326000D01*
X2293904Y4373619D01*
X2198666Y4373619D01*
X2103428Y4326000D01*
X2055809Y4278380D01*
X2008190Y4183142D01*
X1960571Y3992666D01*
X1912952Y3897428D01*
X1865333Y3849809D01*
X1770095Y3802190D01*
X1674857Y3802190D01*
X1579619Y3849809D01*
X1532000Y3897428D01*
X1484380Y3992666D01*
X1484380Y4230761D01*
X1532000Y4373619D01*
X2484380Y4802190D02*
X1484380Y4802190D01*
X1532000Y5802190D02*
X1484380Y5706952D01*
X1484380Y5564095D01*
X1532000Y5421238D01*
X1627238Y5326000D01*
X1722476Y5278380D01*
X1912952Y5230761D01*
X2055809Y5230761D01*
X2246285Y5278380D01*
X2341523Y5326000D01*
X2436761Y5421238D01*
X2484380Y5564095D01*
X2484380Y5659333D01*
X2436761Y5802190D01*
X2389142Y5849809D01*
X2055809Y5849809D01*
X2055809Y5659333D01*
D11*
%TO.C,SW1*%
X2940000Y6350000D02*
X-2940000Y6350000D01*
X-2940000Y6350000D02*
X-2940000Y-6350000D01*
X-2940000Y-6350000D02*
X2940000Y-6350000D01*
X2940000Y-6350000D02*
X2940000Y6350000D01*
%TO.C,R1*%
X-4571276Y4078500D02*
X-5080724Y4078500D01*
X-4571276Y3033500D02*
X-5080724Y3033500D01*
%TO.C,D1*%
X-3220000Y-6152000D02*
X-6080000Y-6152000D01*
X-3220000Y-8072000D02*
X-3220000Y-6152000D01*
X-6080000Y-8072000D02*
X-3220000Y-8072000D01*
%TO.C,R1*%
D10*
X-4992666Y4627619D02*
X-5326000Y5103809D01*
X-5564095Y4627619D02*
X-5564095Y5627619D01*
X-5183142Y5627619D01*
X-5087904Y5580000D01*
X-5040285Y5532380D01*
X-4992666Y5437142D01*
X-4992666Y5294285D01*
X-5040285Y5199047D01*
X-5087904Y5151428D01*
X-5183142Y5103809D01*
X-5564095Y5103809D01*
X-4040285Y4627619D02*
X-4611714Y4627619D01*
X-4326000Y4627619D02*
X-4326000Y5627619D01*
X-4421238Y5484761D01*
X-4516476Y5389523D01*
X-4611714Y5341904D01*
%TO.C,J2*%
X2968666Y-14184380D02*
X2968666Y-14898666D01*
X2921047Y-15041523D01*
X2825809Y-15136761D01*
X2682952Y-15184380D01*
X2587714Y-15184380D01*
X3397238Y-14279619D02*
X3444857Y-14232000D01*
X3540095Y-14184380D01*
X3778190Y-14184380D01*
X3873428Y-14232000D01*
X3921047Y-14279619D01*
X3968666Y-14374857D01*
X3968666Y-14470095D01*
X3921047Y-14612952D01*
X3349619Y-15184380D01*
X3968666Y-15184380D01*
%TO.C,J1*%
X-4079833Y7723119D02*
X-4079833Y7008833D01*
X-4127452Y6865976D01*
X-4222690Y6770738D01*
X-4365547Y6723119D01*
X-4460785Y6723119D01*
X-3079833Y6723119D02*
X-3651261Y6723119D01*
X-3365547Y6723119D02*
X-3365547Y7723119D01*
X-3460785Y7580261D01*
X-3556023Y7485023D01*
X-3651261Y7437404D01*
%TO.C,D1*%
X-6580095Y-9596380D02*
X-6580095Y-8596380D01*
X-6342000Y-8596380D01*
X-6199142Y-8644000D01*
X-6103904Y-8739238D01*
X-6056285Y-8834476D01*
X-6008666Y-9024952D01*
X-6008666Y-9167809D01*
X-6056285Y-9358285D01*
X-6103904Y-9453523D01*
X-6199142Y-9548761D01*
X-6342000Y-9596380D01*
X-6580095Y-9596380D01*
X-5056285Y-9596380D02*
X-5627714Y-9596380D01*
X-5342000Y-9596380D02*
X-5342000Y-8596380D01*
X-5437238Y-8739238D01*
X-5532476Y-8834476D01*
X-5627714Y-8882095D01*
%TD*%
M02*
