%TF.GenerationSoftware,KiCad,Pcbnew,(5.1.7)-1*%
%TF.CreationDate,2020-11-20T21:44:25-06:00*%
%TF.ProjectId,PROBE-BOARD,50524f42-452d-4424-9f41-52442e6b6963,rev?*%
%TF.SameCoordinates,Original*%
%TF.FileFunction,Other,Fab,Top*%
%FSLAX46Y46*%
G04 Gerber Fmt 4.6, Leading zero omitted, Abs format (unit mm)*
G04 Created by KiCad (PCBNEW (5.1.7)-1) date 2020-11-20 21:44:25*
%MOMM*%
%LPD*%
G01*
G04 APERTURE LIST*
%ADD10C,0.100000*%
%ADD11C,0.150000*%
%ADD12C,0.120000*%
%ADD13C,0.080000*%
G04 APERTURE END LIST*
D10*
%TO.C,R1*%
X-3353000Y85000D02*
X-3353000Y-1515000D01*
X-3353000Y-1515000D02*
X-6553000Y-1515000D01*
X-6553000Y-1515000D02*
X-6553000Y85000D01*
X-6553000Y85000D02*
X-3353000Y85000D01*
%TO.C,D1*%
X-3831500Y-3633500D02*
X-5431500Y-3633500D01*
X-3831500Y-6833500D02*
X-3831500Y-3633500D01*
X-5031500Y-6833500D02*
X-3831500Y-6833500D01*
X-5431500Y-6433500D02*
X-5031500Y-6833500D01*
X-5431500Y-3633500D02*
X-5431500Y-6433500D01*
%TD*%
%TO.C,R1*%
D11*
X-5072047Y652619D02*
X-5643476Y652619D01*
X-5357761Y652619D02*
X-5357761Y1652619D01*
X-5453000Y1509761D01*
X-5548238Y1414523D01*
X-5643476Y1366904D01*
X-4643476Y652619D02*
X-4643476Y1652619D01*
X-4548238Y1033571D02*
X-4262523Y652619D01*
X-4262523Y1319285D02*
X-4643476Y938333D01*
D12*
X-5086333Y-1076904D02*
X-5353000Y-695952D01*
X-5543476Y-1076904D02*
X-5543476Y-276904D01*
X-5238714Y-276904D01*
X-5162523Y-315000D01*
X-5124428Y-353095D01*
X-5086333Y-429285D01*
X-5086333Y-543571D01*
X-5124428Y-619761D01*
X-5162523Y-657857D01*
X-5238714Y-695952D01*
X-5543476Y-695952D01*
X-4324428Y-1076904D02*
X-4781571Y-1076904D01*
X-4553000Y-1076904D02*
X-4553000Y-276904D01*
X-4629190Y-391190D01*
X-4705380Y-467380D01*
X-4781571Y-505476D01*
%TO.C,D1*%
D11*
X-2529119Y-8376357D02*
X-2529119Y-8852547D01*
X-3529119Y-8852547D01*
X-3052928Y-8043023D02*
X-3052928Y-7709690D01*
X-2529119Y-7566833D02*
X-2529119Y-8043023D01*
X-3529119Y-8043023D01*
X-3529119Y-7566833D01*
X-2529119Y-7138261D02*
X-3529119Y-7138261D01*
X-3529119Y-6900166D01*
X-3481500Y-6757309D01*
X-3386261Y-6662071D01*
X-3291023Y-6614452D01*
X-3100547Y-6566833D01*
X-2957690Y-6566833D01*
X-2767214Y-6614452D01*
X-2671976Y-6662071D01*
X-2576738Y-6757309D01*
X-2529119Y-6900166D01*
X-2529119Y-7138261D01*
X-2433880Y-6376357D02*
X-2433880Y-5614452D01*
X-2576738Y-5423976D02*
X-2529119Y-5281119D01*
X-2529119Y-5043023D01*
X-2576738Y-4947785D01*
X-2624357Y-4900166D01*
X-2719595Y-4852547D01*
X-2814833Y-4852547D01*
X-2910071Y-4900166D01*
X-2957690Y-4947785D01*
X-3005309Y-5043023D01*
X-3052928Y-5233499D01*
X-3100547Y-5328738D01*
X-3148166Y-5376357D01*
X-3243404Y-5423976D01*
X-3338642Y-5423976D01*
X-3433880Y-5376357D01*
X-3481500Y-5328738D01*
X-3529119Y-5233499D01*
X-3529119Y-4995404D01*
X-3481500Y-4852547D01*
X-2529119Y-4423976D02*
X-3195785Y-4423976D01*
X-3100547Y-4423976D02*
X-3148166Y-4376357D01*
X-3195785Y-4281119D01*
X-3195785Y-4138261D01*
X-3148166Y-4043023D01*
X-3052928Y-3995404D01*
X-2529119Y-3995404D01*
X-3052928Y-3995404D02*
X-3148166Y-3947785D01*
X-3195785Y-3852547D01*
X-3195785Y-3709690D01*
X-3148166Y-3614452D01*
X-3052928Y-3566833D01*
X-2529119Y-3566833D01*
X-2529119Y-2662071D02*
X-3052928Y-2662071D01*
X-3148166Y-2709690D01*
X-3195785Y-2804928D01*
X-3195785Y-2995404D01*
X-3148166Y-3090642D01*
X-2576738Y-2662071D02*
X-2529119Y-2757309D01*
X-2529119Y-2995404D01*
X-2576738Y-3090642D01*
X-2671976Y-3138261D01*
X-2767214Y-3138261D01*
X-2862452Y-3090642D01*
X-2910071Y-2995404D01*
X-2910071Y-2757309D01*
X-2957690Y-2662071D01*
X-2529119Y-2043023D02*
X-2576738Y-2138261D01*
X-2671976Y-2185880D01*
X-3529119Y-2185880D01*
X-2529119Y-1519214D02*
X-2576738Y-1614452D01*
X-2671976Y-1662071D01*
X-3529119Y-1662071D01*
D13*
X-4405309Y-5602547D02*
X-4905309Y-5602547D01*
X-4905309Y-5483500D01*
X-4881500Y-5412071D01*
X-4833880Y-5364452D01*
X-4786261Y-5340642D01*
X-4691023Y-5316833D01*
X-4619595Y-5316833D01*
X-4524357Y-5340642D01*
X-4476738Y-5364452D01*
X-4429119Y-5412071D01*
X-4405309Y-5483500D01*
X-4405309Y-5602547D01*
X-4405309Y-4840642D02*
X-4405309Y-5126357D01*
X-4405309Y-4983500D02*
X-4905309Y-4983500D01*
X-4833880Y-5031119D01*
X-4786261Y-5078738D01*
X-4762452Y-5126357D01*
%TO.C,SW1*%
D11*
X1674761Y-2745714D02*
X1722380Y-2602857D01*
X1722380Y-2364761D01*
X1674761Y-2269523D01*
X1627142Y-2221904D01*
X1531904Y-2174285D01*
X1436666Y-2174285D01*
X1341428Y-2221904D01*
X1293809Y-2269523D01*
X1246190Y-2364761D01*
X1198571Y-2555238D01*
X1150952Y-2650476D01*
X1103333Y-2698095D01*
X1008095Y-2745714D01*
X912857Y-2745714D01*
X817619Y-2698095D01*
X769999Y-2650476D01*
X722380Y-2555238D01*
X722380Y-2317142D01*
X769999Y-2174285D01*
X722380Y-1840952D02*
X1722380Y-1602857D01*
X1008095Y-1412380D01*
X1722380Y-1221904D01*
X722380Y-983809D01*
X1817619Y-840952D02*
X1817619Y-79047D01*
X1722380Y159047D02*
X722380Y159047D01*
X722380Y539999D01*
X769999Y635238D01*
X817619Y682857D01*
X912857Y730476D01*
X1055714Y730476D01*
X1150952Y682857D01*
X1198571Y635238D01*
X1246190Y539999D01*
X1246190Y159047D01*
X1055714Y1587619D02*
X1722380Y1587619D01*
X1055714Y1159047D02*
X1579523Y1159047D01*
X1674761Y1206666D01*
X1722380Y1301904D01*
X1722380Y1444761D01*
X1674761Y1540000D01*
X1627142Y1587619D01*
X1674761Y2016190D02*
X1722380Y2111428D01*
X1722380Y2301904D01*
X1674761Y2397142D01*
X1579523Y2444761D01*
X1531904Y2444761D01*
X1436666Y2397142D01*
X1389047Y2301904D01*
X1389047Y2159047D01*
X1341428Y2063809D01*
X1246190Y2016190D01*
X1198571Y2016190D01*
X1103333Y2063809D01*
X1055714Y2159047D01*
X1055714Y2301904D01*
X1103333Y2397142D01*
X1722380Y2873333D02*
X722380Y2873333D01*
X1722380Y3301904D02*
X1198571Y3301904D01*
X1103333Y3254285D01*
X1055714Y3159047D01*
X1055714Y3016190D01*
X1103333Y2920952D01*
X1150952Y2873333D01*
X1817619Y3540000D02*
X1817619Y4301904D01*
X722380Y4730476D02*
X722380Y4920952D01*
X770000Y5016190D01*
X865238Y5111428D01*
X1055714Y5159047D01*
X1389047Y5159047D01*
X1579523Y5111428D01*
X1674761Y5016190D01*
X1722380Y4920952D01*
X1722380Y4730476D01*
X1674761Y4635238D01*
X1579523Y4540000D01*
X1389047Y4492380D01*
X1055714Y4492380D01*
X865238Y4540000D01*
X770000Y4635238D01*
X722380Y4730476D01*
X1055714Y5587619D02*
X2055714Y5587619D01*
X1103333Y5587619D02*
X1055714Y5682857D01*
X1055714Y5873333D01*
X1103333Y5968571D01*
X1150952Y6016190D01*
X1246190Y6063809D01*
X1531904Y6063809D01*
X1627142Y6016190D01*
X1674761Y5968571D01*
X1722380Y5873333D01*
X1722380Y5682857D01*
X1674761Y5587619D01*
X1674761Y6873333D02*
X1722380Y6778095D01*
X1722380Y6587619D01*
X1674761Y6492380D01*
X1579523Y6444761D01*
X1198571Y6444761D01*
X1103333Y6492380D01*
X1055714Y6587619D01*
X1055714Y6778095D01*
X1103333Y6873333D01*
X1198571Y6920952D01*
X1293809Y6920952D01*
X1389047Y6444761D01*
X1055714Y7349523D02*
X1722380Y7349523D01*
X1150952Y7349523D02*
X1103333Y7397142D01*
X1055714Y7492380D01*
X1055714Y7635238D01*
X1103333Y7730476D01*
X1198571Y7778095D01*
X1722380Y7778095D01*
%TO.C,REF\u002A\u002A*%
X-4119047Y-152380D02*
X-4119047Y847619D01*
X-3785714Y133333D01*
X-3452380Y847619D01*
X-3452380Y-152380D01*
X-2833333Y-152380D02*
X-2928571Y-104761D01*
X-2976190Y-57142D01*
X-3023809Y38095D01*
X-3023809Y323809D01*
X-2976190Y419047D01*
X-2928571Y466666D01*
X-2833333Y514285D01*
X-2690476Y514285D01*
X-2595238Y466666D01*
X-2547619Y419047D01*
X-2500000Y323809D01*
X-2500000Y38095D01*
X-2547619Y-57142D01*
X-2595238Y-104761D01*
X-2690476Y-152380D01*
X-2833333Y-152380D01*
X-1642857Y514285D02*
X-1642857Y-152380D01*
X-2071428Y514285D02*
X-2071428Y-9523D01*
X-2023809Y-104761D01*
X-1928571Y-152380D01*
X-1785714Y-152380D01*
X-1690476Y-104761D01*
X-1642857Y-57142D01*
X-1166666Y514285D02*
X-1166666Y-152380D01*
X-1166666Y419047D02*
X-1119047Y466666D01*
X-1023809Y514285D01*
X-880952Y514285D01*
X-785714Y466666D01*
X-738095Y371428D01*
X-738095Y-152380D01*
X-404761Y514285D02*
X-23809Y514285D01*
X-261904Y847619D02*
X-261904Y-9523D01*
X-214285Y-104761D01*
X-119047Y-152380D01*
X-23809Y-152380D01*
X309523Y-152380D02*
X309523Y514285D01*
X309523Y847619D02*
X261904Y800000D01*
X309523Y752380D01*
X357142Y800000D01*
X309523Y847619D01*
X309523Y752380D01*
X785714Y514285D02*
X785714Y-152380D01*
X785714Y419047D02*
X833333Y466666D01*
X928571Y514285D01*
X1071428Y514285D01*
X1166666Y466666D01*
X1214285Y371428D01*
X1214285Y-152380D01*
X2119047Y514285D02*
X2119047Y-295238D01*
X2071428Y-390476D01*
X2023809Y-438095D01*
X1928571Y-485714D01*
X1785714Y-485714D01*
X1690476Y-438095D01*
X2119047Y-104761D02*
X2023809Y-152380D01*
X1833333Y-152380D01*
X1738095Y-104761D01*
X1690476Y-57142D01*
X1642857Y38095D01*
X1642857Y323809D01*
X1690476Y419047D01*
X1738095Y466666D01*
X1833333Y514285D01*
X2023809Y514285D01*
X2119047Y466666D01*
X2595238Y-152380D02*
X2595238Y847619D01*
X2595238Y371428D02*
X3166666Y371428D01*
X3166666Y-152380D02*
X3166666Y847619D01*
X3785714Y-152380D02*
X3690476Y-104761D01*
X3642857Y-57142D01*
X3595238Y38095D01*
X3595238Y323809D01*
X3642857Y419047D01*
X3690476Y466666D01*
X3785714Y514285D01*
X3928571Y514285D01*
X4023809Y466666D01*
X4071428Y419047D01*
X4119047Y323809D01*
X4119047Y38095D01*
X4071428Y-57142D01*
X4023809Y-104761D01*
X3928571Y-152380D01*
X3785714Y-152380D01*
X4690476Y-152380D02*
X4595238Y-104761D01*
X4547619Y-9523D01*
X4547619Y847619D01*
X5452380Y-104761D02*
X5357142Y-152380D01*
X5166666Y-152380D01*
X5071428Y-104761D01*
X5023809Y-9523D01*
X5023809Y371428D01*
X5071428Y466666D01*
X5166666Y514285D01*
X5357142Y514285D01*
X5452380Y466666D01*
X5499999Y371428D01*
X5499999Y276190D01*
X5023809Y180952D01*
X5690476Y-247619D02*
X6452380Y-247619D01*
X6595238Y847619D02*
X7214285Y847619D01*
X6880952Y466666D01*
X7023809Y466666D01*
X7119047Y419047D01*
X7166666Y371428D01*
X7214285Y276190D01*
X7214285Y38095D01*
X7166666Y-57142D01*
X7119047Y-104761D01*
X7023809Y-152380D01*
X6738095Y-152380D01*
X6642857Y-104761D01*
X6595238Y-57142D01*
X7642857Y-57142D02*
X7690476Y-104761D01*
X7642857Y-152380D01*
X7595238Y-104761D01*
X7642857Y-57142D01*
X7642857Y-152380D01*
X8071428Y752380D02*
X8119047Y800000D01*
X8214285Y847619D01*
X8452380Y847619D01*
X8547619Y800000D01*
X8595238Y752380D01*
X8642857Y657142D01*
X8642857Y561904D01*
X8595238Y419047D01*
X8023809Y-152380D01*
X8642857Y-152380D01*
X9071428Y-152380D02*
X9071428Y514285D01*
X9071428Y419047D02*
X9119047Y466666D01*
X9214285Y514285D01*
X9357142Y514285D01*
X9452380Y466666D01*
X9499999Y371428D01*
X9499999Y-152380D01*
X9499999Y371428D02*
X9547619Y466666D01*
X9642857Y514285D01*
X9785714Y514285D01*
X9880952Y466666D01*
X9928571Y371428D01*
X9928571Y-152380D01*
X10404761Y-152380D02*
X10404761Y514285D01*
X10404761Y419047D02*
X10452380Y466666D01*
X10547619Y514285D01*
X10690476Y514285D01*
X10785714Y466666D01*
X10833333Y371428D01*
X10833333Y-152380D01*
X10833333Y371428D02*
X10880952Y466666D01*
X10976190Y514285D01*
X11119047Y514285D01*
X11214285Y466666D01*
X11261904Y371428D01*
X11261904Y-152380D01*
X11499999Y-247619D02*
X12261904Y-247619D01*
X12499999Y-152380D02*
X12499999Y847619D01*
X12833333Y133333D01*
X13166666Y847619D01*
X13166666Y-152380D01*
X13547619Y847619D02*
X14166666Y847619D01*
X13833333Y466666D01*
X13976190Y466666D01*
X14071428Y419047D01*
X14119047Y371428D01*
X14166666Y276190D01*
X14166666Y38095D01*
X14119047Y-57142D01*
X14071428Y-104761D01*
X13976190Y-152380D01*
X13690476Y-152380D01*
X13595238Y-104761D01*
X13547619Y-57142D01*
X3966666Y4047619D02*
X3633333Y4523809D01*
X3395238Y4047619D02*
X3395238Y5047619D01*
X3776190Y5047619D01*
X3871428Y5000000D01*
X3919047Y4952380D01*
X3966666Y4857142D01*
X3966666Y4714285D01*
X3919047Y4619047D01*
X3871428Y4571428D01*
X3776190Y4523809D01*
X3395238Y4523809D01*
X4395238Y4571428D02*
X4728571Y4571428D01*
X4871428Y4047619D02*
X4395238Y4047619D01*
X4395238Y5047619D01*
X4871428Y5047619D01*
X5633333Y4571428D02*
X5300000Y4571428D01*
X5300000Y4047619D02*
X5300000Y5047619D01*
X5776190Y5047619D01*
X6300000Y5047619D02*
X6300000Y4809523D01*
X6061904Y4904761D02*
X6300000Y4809523D01*
X6538095Y4904761D01*
X6157142Y4619047D02*
X6300000Y4809523D01*
X6442857Y4619047D01*
X7061904Y5047619D02*
X7061904Y4809523D01*
X6823809Y4904761D02*
X7061904Y4809523D01*
X7300000Y4904761D01*
X6919047Y4619047D02*
X7061904Y4809523D01*
X7204761Y4619047D01*
X-14119047Y-152380D02*
X-14119047Y847619D01*
X-13785714Y133333D01*
X-13452380Y847619D01*
X-13452380Y-152380D01*
X-12833333Y-152380D02*
X-12928571Y-104761D01*
X-12976190Y-57142D01*
X-13023809Y38095D01*
X-13023809Y323809D01*
X-12976190Y419047D01*
X-12928571Y466666D01*
X-12833333Y514285D01*
X-12690476Y514285D01*
X-12595238Y466666D01*
X-12547619Y419047D01*
X-12500000Y323809D01*
X-12500000Y38095D01*
X-12547619Y-57142D01*
X-12595238Y-104761D01*
X-12690476Y-152380D01*
X-12833333Y-152380D01*
X-11642857Y514285D02*
X-11642857Y-152380D01*
X-12071428Y514285D02*
X-12071428Y-9523D01*
X-12023809Y-104761D01*
X-11928571Y-152380D01*
X-11785714Y-152380D01*
X-11690476Y-104761D01*
X-11642857Y-57142D01*
X-11166666Y514285D02*
X-11166666Y-152380D01*
X-11166666Y419047D02*
X-11119047Y466666D01*
X-11023809Y514285D01*
X-10880952Y514285D01*
X-10785714Y466666D01*
X-10738095Y371428D01*
X-10738095Y-152380D01*
X-10404761Y514285D02*
X-10023809Y514285D01*
X-10261904Y847619D02*
X-10261904Y-9523D01*
X-10214285Y-104761D01*
X-10119047Y-152380D01*
X-10023809Y-152380D01*
X-9690476Y-152380D02*
X-9690476Y514285D01*
X-9690476Y847619D02*
X-9738095Y800000D01*
X-9690476Y752380D01*
X-9642857Y800000D01*
X-9690476Y847619D01*
X-9690476Y752380D01*
X-9214285Y514285D02*
X-9214285Y-152380D01*
X-9214285Y419047D02*
X-9166666Y466666D01*
X-9071428Y514285D01*
X-8928571Y514285D01*
X-8833333Y466666D01*
X-8785714Y371428D01*
X-8785714Y-152380D01*
X-7880952Y514285D02*
X-7880952Y-295238D01*
X-7928571Y-390476D01*
X-7976190Y-438095D01*
X-8071428Y-485714D01*
X-8214285Y-485714D01*
X-8309523Y-438095D01*
X-7880952Y-104761D02*
X-7976190Y-152380D01*
X-8166666Y-152380D01*
X-8261904Y-104761D01*
X-8309523Y-57142D01*
X-8357142Y38095D01*
X-8357142Y323809D01*
X-8309523Y419047D01*
X-8261904Y466666D01*
X-8166666Y514285D01*
X-7976190Y514285D01*
X-7880952Y466666D01*
X-7404761Y-152380D02*
X-7404761Y847619D01*
X-7404761Y371428D02*
X-6833333Y371428D01*
X-6833333Y-152380D02*
X-6833333Y847619D01*
X-6214285Y-152380D02*
X-6309523Y-104761D01*
X-6357142Y-57142D01*
X-6404761Y38095D01*
X-6404761Y323809D01*
X-6357142Y419047D01*
X-6309523Y466666D01*
X-6214285Y514285D01*
X-6071428Y514285D01*
X-5976190Y466666D01*
X-5928571Y419047D01*
X-5880952Y323809D01*
X-5880952Y38095D01*
X-5928571Y-57142D01*
X-5976190Y-104761D01*
X-6071428Y-152380D01*
X-6214285Y-152380D01*
X-5309523Y-152380D02*
X-5404761Y-104761D01*
X-5452380Y-9523D01*
X-5452380Y847619D01*
X-4547619Y-104761D02*
X-4642857Y-152380D01*
X-4833333Y-152380D01*
X-4928571Y-104761D01*
X-4976190Y-9523D01*
X-4976190Y371428D01*
X-4928571Y466666D01*
X-4833333Y514285D01*
X-4642857Y514285D01*
X-4547619Y466666D01*
X-4500000Y371428D01*
X-4500000Y276190D01*
X-4976190Y180952D01*
X-4309523Y-247619D02*
X-3547619Y-247619D01*
X-3404761Y847619D02*
X-2785714Y847619D01*
X-3119047Y466666D01*
X-2976190Y466666D01*
X-2880952Y419047D01*
X-2833333Y371428D01*
X-2785714Y276190D01*
X-2785714Y38095D01*
X-2833333Y-57142D01*
X-2880952Y-104761D01*
X-2976190Y-152380D01*
X-3261904Y-152380D01*
X-3357142Y-104761D01*
X-3404761Y-57142D01*
X-2357142Y-57142D02*
X-2309523Y-104761D01*
X-2357142Y-152380D01*
X-2404761Y-104761D01*
X-2357142Y-57142D01*
X-2357142Y-152380D01*
X-1928571Y752380D02*
X-1880952Y800000D01*
X-1785714Y847619D01*
X-1547619Y847619D01*
X-1452380Y800000D01*
X-1404761Y752380D01*
X-1357142Y657142D01*
X-1357142Y561904D01*
X-1404761Y419047D01*
X-1976190Y-152380D01*
X-1357142Y-152380D01*
X-928571Y-152380D02*
X-928571Y514285D01*
X-928571Y419047D02*
X-880952Y466666D01*
X-785714Y514285D01*
X-642857Y514285D01*
X-547619Y466666D01*
X-500000Y371428D01*
X-500000Y-152380D01*
X-500000Y371428D02*
X-452380Y466666D01*
X-357142Y514285D01*
X-214285Y514285D01*
X-119047Y466666D01*
X-71428Y371428D01*
X-71428Y-152380D01*
X404761Y-152380D02*
X404761Y514285D01*
X404761Y419047D02*
X452380Y466666D01*
X547619Y514285D01*
X690476Y514285D01*
X785714Y466666D01*
X833333Y371428D01*
X833333Y-152380D01*
X833333Y371428D02*
X880952Y466666D01*
X976190Y514285D01*
X1119047Y514285D01*
X1214285Y466666D01*
X1261904Y371428D01*
X1261904Y-152380D01*
X1499999Y-247619D02*
X2261904Y-247619D01*
X2499999Y-152380D02*
X2499999Y847619D01*
X2833333Y133333D01*
X3166666Y847619D01*
X3166666Y-152380D01*
X3547619Y847619D02*
X4166666Y847619D01*
X3833333Y466666D01*
X3976190Y466666D01*
X4071428Y419047D01*
X4119047Y371428D01*
X4166666Y276190D01*
X4166666Y38095D01*
X4119047Y-57142D01*
X4071428Y-104761D01*
X3976190Y-152380D01*
X3690476Y-152380D01*
X3595238Y-104761D01*
X3547619Y-57142D01*
X-6033333Y4047619D02*
X-6366666Y4523809D01*
X-6604761Y4047619D02*
X-6604761Y5047619D01*
X-6223809Y5047619D01*
X-6128571Y5000000D01*
X-6080952Y4952380D01*
X-6033333Y4857142D01*
X-6033333Y4714285D01*
X-6080952Y4619047D01*
X-6128571Y4571428D01*
X-6223809Y4523809D01*
X-6604761Y4523809D01*
X-5604761Y4571428D02*
X-5271428Y4571428D01*
X-5128571Y4047619D02*
X-5604761Y4047619D01*
X-5604761Y5047619D01*
X-5128571Y5047619D01*
X-4366666Y4571428D02*
X-4700000Y4571428D01*
X-4700000Y4047619D02*
X-4700000Y5047619D01*
X-4223809Y5047619D01*
X-3700000Y5047619D02*
X-3700000Y4809523D01*
X-3938095Y4904761D02*
X-3700000Y4809523D01*
X-3461904Y4904761D01*
X-3842857Y4619047D02*
X-3700000Y4809523D01*
X-3557142Y4619047D01*
X-2938095Y5047619D02*
X-2938095Y4809523D01*
X-3176190Y4904761D02*
X-2938095Y4809523D01*
X-2700000Y4904761D01*
X-3080952Y4619047D02*
X-2938095Y4809523D01*
X-2795238Y4619047D01*
%TO.C,J2*%
X-3738095Y-10607142D02*
X-3785714Y-10654761D01*
X-3928571Y-10702380D01*
X-4023809Y-10702380D01*
X-4166666Y-10654761D01*
X-4261904Y-10559523D01*
X-4309523Y-10464285D01*
X-4357142Y-10273809D01*
X-4357142Y-10130952D01*
X-4309523Y-9940476D01*
X-4261904Y-9845238D01*
X-4166666Y-9750000D01*
X-4023809Y-9702380D01*
X-3928571Y-9702380D01*
X-3785714Y-9750000D01*
X-3738095Y-9797619D01*
X-3166666Y-10702380D02*
X-3261904Y-10654761D01*
X-3309523Y-10607142D01*
X-3357142Y-10511904D01*
X-3357142Y-10226190D01*
X-3309523Y-10130952D01*
X-3261904Y-10083333D01*
X-3166666Y-10035714D01*
X-3023809Y-10035714D01*
X-2928571Y-10083333D01*
X-2880952Y-10130952D01*
X-2833333Y-10226190D01*
X-2833333Y-10511904D01*
X-2880952Y-10607142D01*
X-2928571Y-10654761D01*
X-3023809Y-10702380D01*
X-3166666Y-10702380D01*
X-2404761Y-10035714D02*
X-2404761Y-10702380D01*
X-2404761Y-10130952D02*
X-2357142Y-10083333D01*
X-2261904Y-10035714D01*
X-2119047Y-10035714D01*
X-2023809Y-10083333D01*
X-1976190Y-10178571D01*
X-1976190Y-10702380D01*
X-1500000Y-10035714D02*
X-1500000Y-10702380D01*
X-1500000Y-10130952D02*
X-1452380Y-10083333D01*
X-1357142Y-10035714D01*
X-1214285Y-10035714D01*
X-1119047Y-10083333D01*
X-1071428Y-10178571D01*
X-1071428Y-10702380D01*
X-833333Y-10797619D02*
X-71428Y-10797619D01*
X357142Y-9702380D02*
X452380Y-9702380D01*
X547619Y-9750000D01*
X595238Y-9797619D01*
X642857Y-9892857D01*
X690476Y-10083333D01*
X690476Y-10321428D01*
X642857Y-10511904D01*
X595238Y-10607142D01*
X547619Y-10654761D01*
X452380Y-10702380D01*
X357142Y-10702380D01*
X261904Y-10654761D01*
X214285Y-10607142D01*
X166666Y-10511904D01*
X119047Y-10321428D01*
X119047Y-10083333D01*
X166666Y-9892857D01*
X214285Y-9797619D01*
X261904Y-9750000D01*
X357142Y-9702380D01*
X1642857Y-10702380D02*
X1071428Y-10702380D01*
X1357142Y-10702380D02*
X1357142Y-9702380D01*
X1261904Y-9845238D01*
X1166666Y-9940476D01*
X1071428Y-9988095D01*
X1976190Y-10702380D02*
X2500000Y-10035714D01*
X1976190Y-10035714D02*
X2500000Y-10702380D01*
X3071428Y-9702380D02*
X3166666Y-9702380D01*
X3261904Y-9750000D01*
X3309523Y-9797619D01*
X3357142Y-9892857D01*
X3404761Y-10083333D01*
X3404761Y-10321428D01*
X3357142Y-10511904D01*
X3309523Y-10607142D01*
X3261904Y-10654761D01*
X3166666Y-10702380D01*
X3071428Y-10702380D01*
X2976190Y-10654761D01*
X2928571Y-10607142D01*
X2880952Y-10511904D01*
X2833333Y-10321428D01*
X2833333Y-10083333D01*
X2880952Y-9892857D01*
X2928571Y-9797619D01*
X2976190Y-9750000D01*
X3071428Y-9702380D01*
X4357142Y-10702380D02*
X3785714Y-10702380D01*
X4071428Y-10702380D02*
X4071428Y-9702380D01*
X3976190Y-9845238D01*
X3880952Y-9940476D01*
X3785714Y-9988095D01*
%TO.C,J1*%
X-3738095Y10892857D02*
X-3785714Y10845238D01*
X-3928571Y10797619D01*
X-4023809Y10797619D01*
X-4166666Y10845238D01*
X-4261904Y10940476D01*
X-4309523Y11035714D01*
X-4357142Y11226190D01*
X-4357142Y11369047D01*
X-4309523Y11559523D01*
X-4261904Y11654761D01*
X-4166666Y11750000D01*
X-4023809Y11797619D01*
X-3928571Y11797619D01*
X-3785714Y11750000D01*
X-3738095Y11702380D01*
X-3166666Y10797619D02*
X-3261904Y10845238D01*
X-3309523Y10892857D01*
X-3357142Y10988095D01*
X-3357142Y11273809D01*
X-3309523Y11369047D01*
X-3261904Y11416666D01*
X-3166666Y11464285D01*
X-3023809Y11464285D01*
X-2928571Y11416666D01*
X-2880952Y11369047D01*
X-2833333Y11273809D01*
X-2833333Y10988095D01*
X-2880952Y10892857D01*
X-2928571Y10845238D01*
X-3023809Y10797619D01*
X-3166666Y10797619D01*
X-2404761Y11464285D02*
X-2404761Y10797619D01*
X-2404761Y11369047D02*
X-2357142Y11416666D01*
X-2261904Y11464285D01*
X-2119047Y11464285D01*
X-2023809Y11416666D01*
X-1976190Y11321428D01*
X-1976190Y10797619D01*
X-1500000Y11464285D02*
X-1500000Y10797619D01*
X-1500000Y11369047D02*
X-1452380Y11416666D01*
X-1357142Y11464285D01*
X-1214285Y11464285D01*
X-1119047Y11416666D01*
X-1071428Y11321428D01*
X-1071428Y10797619D01*
X-833333Y10702380D02*
X-71428Y10702380D01*
X357142Y11797619D02*
X452380Y11797619D01*
X547619Y11750000D01*
X595238Y11702380D01*
X642857Y11607142D01*
X690476Y11416666D01*
X690476Y11178571D01*
X642857Y10988095D01*
X595238Y10892857D01*
X547619Y10845238D01*
X452380Y10797619D01*
X357142Y10797619D01*
X261904Y10845238D01*
X214285Y10892857D01*
X166666Y10988095D01*
X119047Y11178571D01*
X119047Y11416666D01*
X166666Y11607142D01*
X214285Y11702380D01*
X261904Y11750000D01*
X357142Y11797619D01*
X1642857Y10797619D02*
X1071428Y10797619D01*
X1357142Y10797619D02*
X1357142Y11797619D01*
X1261904Y11654761D01*
X1166666Y11559523D01*
X1071428Y11511904D01*
X1976190Y10797619D02*
X2500000Y11464285D01*
X1976190Y11464285D02*
X2500000Y10797619D01*
X3071428Y11797619D02*
X3166666Y11797619D01*
X3261904Y11750000D01*
X3309523Y11702380D01*
X3357142Y11607142D01*
X3404761Y11416666D01*
X3404761Y11178571D01*
X3357142Y10988095D01*
X3309523Y10892857D01*
X3261904Y10845238D01*
X3166666Y10797619D01*
X3071428Y10797619D01*
X2976190Y10845238D01*
X2928571Y10892857D01*
X2880952Y10988095D01*
X2833333Y11178571D01*
X2833333Y11416666D01*
X2880952Y11607142D01*
X2928571Y11702380D01*
X2976190Y11750000D01*
X3071428Y11797619D01*
X4357142Y10797619D02*
X3785714Y10797619D01*
X4071428Y10797619D02*
X4071428Y11797619D01*
X3976190Y11654761D01*
X3880952Y11559523D01*
X3785714Y11511904D01*
%TD*%
M02*
