%TF.GenerationSoftware,KiCad,Pcbnew,(5.1.7)-1*%
%TF.CreationDate,2020-12-02T23:42:10-06:00*%
%TF.ProjectId,025mag-PROBE-BOARD_REV2,3032356d-6167-42d5-9052-4f42452d424f,rev?*%
%TF.SameCoordinates,Original*%
%TF.FileFunction,Copper,L1,Top*%
%TF.FilePolarity,Positive*%
%FSLAX46Y46*%
G04 Gerber Fmt 4.6, Leading zero omitted, Abs format (unit mm)*
G04 Created by KiCad (PCBNEW (5.1.7)-1) date 2020-12-02 23:42:10*
%MOMM*%
%LPD*%
G01*
G04 APERTURE LIST*
%TA.AperFunction,WasherPad*%
%ADD10C,5.000000*%
%TD*%
%TA.AperFunction,ComponentPad*%
%ADD11C,1.800000*%
%TD*%
%TA.AperFunction,ComponentPad*%
%ADD12C,2.250000*%
%TD*%
%TA.AperFunction,ComponentPad*%
%ADD13O,1.950000X1.700000*%
%TD*%
%TA.AperFunction,ComponentPad*%
%ADD14C,6.400000*%
%TD*%
%TA.AperFunction,ViaPad*%
%ADD15C,0.800000*%
%TD*%
%TA.AperFunction,Conductor*%
%ADD16C,0.500000*%
%TD*%
%TA.AperFunction,Conductor*%
%ADD17C,0.250000*%
%TD*%
%TA.AperFunction,Conductor*%
%ADD18C,1.500000*%
%TD*%
G04 APERTURE END LIST*
D10*
%TO.P,M31,*%
%TO.N,*%
X-5080000Y6330000D03*
%TD*%
D11*
%TO.P,SW1,4*%
%TO.N,SIGNAL*%
X0Y-2540000D03*
D12*
%TO.P,SW1,3*%
%TO.N,VCC*%
X0Y0D03*
%TO.P,SW1,2*%
%TO.N,SIGNAL*%
X0Y5080000D03*
%TO.P,SW1,1*%
%TO.N,GND*%
X0Y-5080000D03*
%TD*%
D13*
%TO.P,REF\u002A\u002A,3*%
%TO.N,GND*%
X0Y-5000000D03*
%TO.P,REF\u002A\u002A,1*%
%TO.N,N/C*%
%TA.AperFunction,ComponentPad*%
G36*
G01*
X-725000Y850000D02*
X725000Y850000D01*
G75*
G02*
X975000Y600000I0J-250000D01*
G01*
X975000Y-600000D01*
G75*
G02*
X725000Y-850000I-250000J0D01*
G01*
X-725000Y-850000D01*
G75*
G02*
X-975000Y-600000I0J250000D01*
G01*
X-975000Y600000D01*
G75*
G02*
X-725000Y850000I250000J0D01*
G01*
G37*
%TD.AperFunction*%
%TO.P,REF\u002A\u002A,2*%
%TO.N,SIGNAL*%
X0Y-2500000D03*
%TD*%
%TO.P,D1,2*%
%TO.N,Net-(D1-Pad2)*%
%TA.AperFunction,SMDPad,CuDef*%
G36*
G01*
X5705000Y775000D02*
X4455000Y775000D01*
G75*
G02*
X4205000Y1025000I0J250000D01*
G01*
X4205000Y1950000D01*
G75*
G02*
X4455000Y2200000I250000J0D01*
G01*
X5705000Y2200000D01*
G75*
G02*
X5955000Y1950000I0J-250000D01*
G01*
X5955000Y1025000D01*
G75*
G02*
X5705000Y775000I-250000J0D01*
G01*
G37*
%TD.AperFunction*%
%TO.P,D1,1*%
%TO.N,SIGNAL*%
%TA.AperFunction,SMDPad,CuDef*%
G36*
G01*
X5705000Y-2200000D02*
X4455000Y-2200000D01*
G75*
G02*
X4205000Y-1950000I0J250000D01*
G01*
X4205000Y-1025000D01*
G75*
G02*
X4455000Y-775000I250000J0D01*
G01*
X5705000Y-775000D01*
G75*
G02*
X5955000Y-1025000I0J-250000D01*
G01*
X5955000Y-1950000D01*
G75*
G02*
X5705000Y-2200000I-250000J0D01*
G01*
G37*
%TD.AperFunction*%
%TD*%
%TO.P,R1,2*%
%TO.N,Net-(D1-Pad2)*%
%TA.AperFunction,SMDPad,CuDef*%
G36*
G01*
X-5089999Y900000D02*
X-6340001Y900000D01*
G75*
G02*
X-6590000Y1149999I0J249999D01*
G01*
X-6590000Y1950001D01*
G75*
G02*
X-6340001Y2200000I249999J0D01*
G01*
X-5089999Y2200000D01*
G75*
G02*
X-4840000Y1950001I0J-249999D01*
G01*
X-4840000Y1149999D01*
G75*
G02*
X-5089999Y900000I-249999J0D01*
G01*
G37*
%TD.AperFunction*%
%TO.P,R1,1*%
%TO.N,VCC*%
%TA.AperFunction,SMDPad,CuDef*%
G36*
G01*
X-5089999Y-2200000D02*
X-6340001Y-2200000D01*
G75*
G02*
X-6590000Y-1950001I0J249999D01*
G01*
X-6590000Y-1149999D01*
G75*
G02*
X-6340001Y-900000I249999J0D01*
G01*
X-5089999Y-900000D01*
G75*
G02*
X-4840000Y-1149999I0J-249999D01*
G01*
X-4840000Y-1950001D01*
G75*
G02*
X-5089999Y-2200000I-249999J0D01*
G01*
G37*
%TD.AperFunction*%
%TD*%
D10*
%TO.P,REF\u002A\u002A,*%
%TO.N,*%
X5120000Y6330000D03*
%TD*%
D14*
%TO.P,MAG2,1*%
%TO.N,GND*%
X0Y-10160000D03*
%TD*%
%TO.P,MAG1,1*%
%TO.N,SIGNAL*%
X0Y10160000D03*
%TD*%
D15*
%TO.N,GND*%
X0Y-7620000D03*
X0Y-12700000D03*
X-1795800Y-8364200D03*
X2540000Y-10160000D03*
X-1795800Y-11955700D03*
X1778000Y-11955800D03*
X-2540000Y-10160000D03*
X1795800Y-8364200D03*
%TO.N,SIGNAL*%
X0Y12700000D03*
X2540000Y10160000D03*
X-2540000Y10160000D03*
X-1795800Y11955800D03*
X1795800Y11955800D03*
X1778000Y8364200D03*
X-1795800Y8364300D03*
X0Y7620000D03*
%TO.N,Net-(D1-Pad2)*%
X3175000Y3175000D03*
X-635000Y3175000D03*
%TO.N,Net-(D2-Pad2)*%
X-3048000Y2032000D03*
X508000Y2032000D03*
%TD*%
D16*
%TO.N,VCC*%
X0Y0D02*
X-87000Y0D01*
D17*
X0Y0D02*
X-635000Y0D01*
X-2185000Y-1550000D02*
X-5715000Y-1550000D01*
X-635000Y0D02*
X-2185000Y-1550000D01*
D18*
%TO.N,GND*%
X0Y-5080000D02*
X0Y-10750000D01*
%TO.N,SIGNAL*%
X0Y10750000D02*
X0Y5080000D01*
D16*
X0Y5080000D02*
X0Y4318000D01*
X0Y-2540000D02*
X0Y-2589500D01*
X0Y5080000D02*
X762000Y5080000D01*
X-508000Y4572000D02*
X0Y5080000D01*
X762000Y5080000D02*
X1778000Y4064000D01*
X1778000Y-762000D02*
X0Y-2540000D01*
X1778000Y0D02*
X1778000Y-762000D01*
X1778000Y4064000D02*
X1778000Y0D01*
D17*
X2503500Y-1487500D02*
X1778000Y-762000D01*
X5080000Y-1487500D02*
X2503500Y-1487500D01*
%TO.N,Net-(D1-Pad2)*%
X-635000Y3175000D02*
X-635000Y3175000D01*
X3392500Y3175000D02*
X5080000Y1487500D01*
X3175000Y3175000D02*
X3392500Y3175000D01*
X-3175000Y3175000D02*
X-635000Y3175000D01*
X-5715000Y1550000D02*
X-3175000Y3175000D01*
%TO.N,Net-(D2-Pad2)*%
X-3048000Y2032000D02*
X508000Y2032000D01*
%TD*%
M02*
